<svg width="32" height="32" viewBox="0 0 32 32" fill="none" xmlns="http://www.w3.org/2000/svg">
<path d="M13.0997 31.9823C10.9428 31.9513 10.6985 31.9362 10.5245 31.8229C10.257 31.6487 10.1368 31.3159 10.1368 30.7494C10.1368 30.1595 10.2624 29.8378 10.5638 29.6553C10.7785 29.5253 10.9079 29.5171 12.7408 29.5169L14.6894 29.5166V25.5784V21.6401L7.7743 21.6386C1.07432 21.6372 0.85001 21.633 0.563714 21.504C0.338134 21.4023 0.236496 21.3014 0.134113 21.0774C0.00324982 20.7911 0 20.5425 0 10.8186C0 1.09462 0.00324958 0.846019 0.134113 0.559729C0.236496 0.335744 0.338134 0.234825 0.563714 0.133165C0.853504 0.00256866 1.15118 0 16 0C30.8488 0 31.1465 0.00256844 31.4363 0.133165C31.6619 0.234825 31.7635 0.335744 31.8659 0.559729C31.9967 0.846019 32 1.09462 32 10.8186C32 20.5425 31.9967 20.7911 31.8659 21.0774C31.6756 21.4937 31.3351 21.6367 30.5292 21.6386C29.9298 21.6401 29.9183 21.6371 29.9539 21.486C30.475 19.2743 30.4584 17.5767 29.8992 15.9102C29.3486 14.2691 28.6254 13.2274 26.7212 11.3323C25.9562 10.571 25.4333 9.8778 25.1782 9.28684C25.0759 9.04988 25.0614 8.95762 25.1237 8.93997C25.5496 8.81935 25.9213 8.64061 26.1983 8.42319C27.3878 7.4896 27.7393 5.32688 26.9655 3.70232C26.4813 2.68579 26.3386 2.63546 25.7362 3.26884C24.4804 4.58922 23.7866 6.23759 23.8856 7.66558C23.9405 8.45864 24.0811 8.95185 24.4737 9.72899L24.8055 10.3859L24.3863 10.2533C23.7083 10.0388 22.356 10.0138 21.4539 10.199C20.2618 10.4439 19.0111 10.9824 17.8279 11.7604C16.6797 12.5155 15.6551 13.3946 15.6551 13.6247C15.6551 13.8009 16.6877 14.7488 17.6904 15.4931C19.0221 16.4817 20.2031 17.0971 21.3522 17.4011C21.9944 17.5711 23.1596 17.6019 23.8636 17.4674C25.2709 17.1987 26.7279 16.2449 27.5039 15.0845C27.636 14.8869 27.7682 14.7401 27.7976 14.7582C27.8271 14.7763 27.9922 15.03 28.1645 15.3219C28.95 16.6529 29.1303 17.3743 29.1362 19.2087C29.1388 20.0113 29.1041 20.7266 29.0458 21.0751L28.9511 21.6401H23.0958H17.2405L17.2583 25.5613L17.2761 29.4824L19.2797 29.5166C21.512 29.5548 21.569 29.5666 21.7655 30.0334C21.9056 30.3665 21.8924 31.2051 21.7424 31.5005C21.5042 31.9693 21.5305 31.9655 18.3453 31.9924C16.7708 32.0057 14.4103 32.0011 13.0997 31.9823Z" fill="#03BA6D"/>
</svg>
