<svg width="32" height="32" viewBox="0 0 32 32" fill="none" xmlns="http://www.w3.org/2000/svg">
<path d="M0.372435 31.7938C0.228183 31.6721 0.0992125 31.4835 0.0568785 31.3324C0.00873116 31.1606 -0.00860651 27.8635 0.00394426 21.2657L0.0226064 11.4546C0.01575 10.9614 0.391782 10.6995 0.66178 10.4421C0.805659 10.2882 3.99466 8.04331 7.74846 5.45355C11.5022 2.8638 14.8074 0.577307 15.0932 0.372457C15.5767 0.0259351 15.6394 0 15.994 0C16.3699 0 16.3896 0.0101486 17.4491 0.751319C18.0398 1.16454 21.3761 3.47316 24.8631 5.88158C30.5441 9.80529 31.2367 10.303 31.5255 10.6696C31.7411 10.9433 31.873 11.1915 31.9239 11.4198C31.9772 11.6588 32 14.6813 32 21.5167C32 30.9791 31.996 31.2799 31.868 31.5195C31.5962 32.0284 31.9354 31.9997 26.1863 31.9997H21.0522L21.0519 26.5554C21.0517 21.2732 21.0476 21.1048 20.9164 20.8979C20.6378 20.4587 20.8179 20.4736 16.0347 20.4937L11.7091 20.5118L11.5214 20.6783C11.1313 21.0243 11.1437 20.8279 11.1437 26.6365V31.9997H5.88007H0.616437L0.372477 31.7938H0.372435Z" fill="#03BA6D"/>
</svg>
