<svg width="14" height="17" viewBox="0 0 14 17" fill="none" xmlns="http://www.w3.org/2000/svg">
<circle cx="7" cy="9.5" r="6.5" fill="white" stroke="#5A5A5A"/>
<path d="M7.38037 4.89746L7.25977 11.4355H6.40283L6.28857 4.89746H7.38037ZM6.84717 14.1143C6.65251 14.1143 6.48535 14.0465 6.3457 13.9111C6.21029 13.7757 6.14258 13.6107 6.14258 13.416C6.14258 13.2214 6.21029 13.0563 6.3457 12.9209C6.48535 12.7812 6.65251 12.7114 6.84717 12.7114C7.0376 12.7114 7.20264 12.7812 7.34229 12.9209C7.48193 13.0563 7.55176 13.2214 7.55176 13.416C7.55176 13.6107 7.48193 13.7757 7.34229 13.9111C7.20264 14.0465 7.0376 14.1143 6.84717 14.1143Z" fill="#5A5A5A"/>
</svg>
