<svg width="32" height="32" viewBox="0 0 32 32" fill="none" xmlns="http://www.w3.org/2000/svg">
<g clip-path="url(#clip0_149_206)">
<path d="M1.71318 31.02C1.47425 30.9732 1.16237 30.6382 1.07934 30.3391C0.977044 29.9707 0.97194 1.04664 1.0741 0.678821C1.11356 0.536772 1.25084 0.332174 1.3868 0.2128L1.62917 0H16.5821H31.535L31.803 0.268038L32.071 0.536076V15.4603C32.071 31.7671 32.1004 30.6159 31.6776 30.9024C31.4892 31.0301 31.0991 31.0337 16.6751 31.0417C8.5301 31.0462 1.79723 31.0364 1.71318 31.02ZM18.2975 28.9904C20.428 28.7156 21.5319 27.9382 20.788 27.2365C20.2255 26.706 18.8901 26.3831 17.0198 26.3253C15.1674 26.268 13.882 26.4461 12.8706 26.8999C12.458 27.0851 12.0494 27.4615 12.0494 27.6564C12.0494 28.6948 15.2653 29.3814 18.2975 28.9904ZM17.0036 25.5545C19.5153 23.2963 21.6163 20.5552 22.9646 17.7778C24.1861 15.2616 24.7062 13.153 24.7101 10.7012C24.7122 9.37073 24.6343 8.78159 24.3343 7.85991C23.9286 6.61362 23.3666 5.70472 22.4411 4.79829C19.9657 2.37391 16.2027 1.89171 12.8434 3.56841C10.503 4.73653 9.0479 6.82552 8.54867 9.73383C8.3959 10.6238 8.3988 12.5006 8.55438 13.4283C9.09737 16.6662 10.7678 19.9602 13.5608 23.301C14.2351 24.1075 16.1903 26.0972 16.3086 26.0972C16.3589 26.0972 16.6717 25.853 17.0036 25.5545ZM15.7137 15.8042C13.8237 15.4333 12.249 14.0691 11.6265 12.2631C10.7289 9.65902 11.8933 6.8378 14.3623 5.63484C15.1357 5.25797 15.5202 5.16702 16.5055 5.12778C17.2753 5.09713 17.4904 5.11326 17.9874 5.23894C21.5882 6.14952 23.2452 10.1705 21.3262 13.3414C21.1823 13.579 20.8304 14.0077 20.5441 14.2941C19.7614 15.0767 18.8853 15.5576 17.8423 15.777C17.3189 15.8871 16.2087 15.9013 15.7137 15.8042Z" fill="#03BA6D"/>
</g>
<defs>
<clipPath id="clip0_149_206">
<rect width="32" height="32" fill="white"/>
</clipPath>
</defs>
</svg>
