<svg width="48" height="48" viewBox="0 0 48 48" fill="none" xmlns="http://www.w3.org/2000/svg">
<path d="M10.1922 47.9431C8.25666 47.6521 6.5593 45.9118 6.23746 43.8885C5.87 41.5784 7.513 39.0217 9.67945 38.5325L10.1768 38.4202L10.238 12.5293L9.9587 12.2356C9.80512 12.0741 9.13546 11.4141 8.47058 10.7691L7.26171 9.5962L6.58068 9.81269C5.63501 10.1133 4.34458 10.114 3.46266 9.81433C1.2745 9.07083 -0.172663 6.89755 0.0165933 4.63918C0.238442 1.99186 2.37999 0 5.00443 0C6.41614 0 7.49875 0.459019 8.54283 1.50026C10.0902 3.04343 10.4603 5.36196 9.47234 7.32402L9.21406 7.83697L10.2407 8.87376L11.2674 9.91054H15.8199H20.3723V15.967C20.3723 15.967 20.3411 18.3696 21.2346 18.6125C22.7177 19.0157 22.6522 18.6414 24.6845 15.5477L28.3796 9.92298C32.4101 9.91884 36.4407 9.91469 40.4712 9.91055L31.1397 22.4541L40.1809 33.7837C40.24 33.8474 40.3174 33.8474 40.4031 33.7837C41.6155 32.8821 42.7727 32.5531 44.077 32.7393C46.5549 33.0929 48.351 35.5274 47.9418 37.9778C47.6058 39.9899 46.0824 41.5231 44.0831 41.8612C41.6483 42.273 39.2294 40.4655 38.8779 37.9717C38.7724 37.2229 38.8718 36.2757 39.1181 35.6824C39.1931 35.5017 39.2284 35.3277 39.1966 35.2957L28.9764 35.2301L25.1537 29.7907C23.0513 26.7991 22.6246 25.8803 20.9443 26.48C20.1254 26.7722 20.3723 29.0297 20.3723 29.0297V35.2351L12.8625 35.2875L12.8151 38.6911L13.4008 39.0276C15.215 40.0696 16.1586 42.2875 15.6444 44.3011C15.4167 45.193 15.0159 45.9164 14.4036 46.5407C13.2953 47.6708 11.7665 48.1799 10.1922 47.9431Z" fill="#C83737"/>
</svg>
