<svg width="48" height="48" viewBox="0 0 48 48" fill="none" xmlns="http://www.w3.org/2000/svg">
<path d="M37.0268 46.3554C34.1916 45.669 31.8065 43.2274 31.0673 40.2549C30.8855 39.5238 30.8008 39.3655 30.6273 39.432C29.8394 39.7345 27.702 40.2954 26.8145 40.4327C25.3433 40.6603 22.6659 40.6366 21.2252 40.3832C17.8017 39.7811 14.706 38.1958 12.1772 35.7495C6.48889 30.2468 5.27286 21.5549 9.25016 14.8275C11.7121 10.6634 15.7996 7.68298 20.5012 6.62388C23.241 6.00671 26.7769 6.19451 29.5005 7.10185C32.2613 8.0216 34.4032 9.34433 36.4138 11.3712C39.0303 14.0088 40.8604 17.7289 41.2513 21.2046C41.5707 24.0443 41.357 26.2576 40.5105 28.8759C40.25 29.6818 40.0657 30.3699 40.1009 30.4052C40.1361 30.4404 40.515 30.5598 40.9429 30.6706C42.8559 31.1659 44.4925 32.3122 45.5896 33.9251C46.6591 35.4975 46.8811 36.1966 46.9468 38.1989C46.994 39.6397 46.9611 40.0288 46.7272 40.7932C45.9055 43.479 43.5426 45.7072 40.8408 46.3441C39.8209 46.5845 37.9952 46.5899 37.0268 46.3554ZM25.5567 35.59V34.6096L23.7939 34.5423C21.3662 34.4496 19.639 33.8917 17.7074 32.5763C15.432 31.0267 13.6998 28.6187 12.901 25.8942L12.5987 24.8631H11.6251H10.6514L10.7348 25.229C10.7806 25.4302 10.9968 26.1336 11.2152 26.7922C12.3367 30.1735 14.0859 32.4644 16.9757 34.3369C19.1928 35.7735 21.6896 36.5133 24.4591 36.5542L25.5567 36.5704V35.59ZM35.601 14.7779C35.601 14.4928 34.203 12.9256 33.2503 12.1428C31.8827 11.019 30.3865 10.1855 28.7955 9.66113C28.0019 9.39959 27.1731 9.16593 26.9536 9.14189L26.5544 9.09818V10.0184C26.5544 10.8851 26.5738 10.9442 26.887 11.0363C28.2288 11.4306 28.7953 11.6406 29.5883 12.0375C30.7893 12.6386 31.8342 13.3631 32.8072 14.2693L33.6054 15.0128L34.6032 14.9823C35.3207 14.9604 35.601 14.903 35.601 14.7779Z" fill="currentColor"/>
<path d="M11.6543 8.07965C11.0168 7.8418 10.2269 7.20785 9.82802 6.61397C9.49548 6.11884 9.4594 5.95222 9.46138 4.92074C9.46398 3.56547 9.72354 2.9809 10.6296 2.28981C11.7009 1.4727 13.1769 1.37317 14.3168 2.04119C16.5603 3.35595 16.5176 6.52 14.2396 7.75983C13.4766 8.17514 12.3003 8.32065 11.6543 8.07965Z" fill="currentColor"/>
<path d="M3.58984 15.508C1.93981 14.8906 0.953653 13.5374 0.947664 11.8824C0.939808 9.7099 2.39086 8.15337 4.57045 7.9963C5.72052 7.91341 6.49355 8.1951 7.37265 9.0174C8.18066 9.7732 8.53788 10.46 8.62549 11.4263C8.76405 12.9543 7.97607 14.4178 6.57162 15.2409C5.84683 15.6657 4.36585 15.7983 3.58984 15.508Z" fill="currentColor"/>
</svg>
