<svg width="64" height="64" viewBox="0 0 64 64" fill="none" xmlns="http://www.w3.org/2000/svg">
<g clip-path="url(#clip0_49_372)">
<path d="M52.6373 59.4213C50.3098 57.1227 47.1564 54.0127 45.6299 52.5101L42.8544 49.7782L41.6647 50.3735C38.783 51.8156 35.2248 52.9422 31.6827 53.5339C29.2496 53.9404 24.9437 53.937 22.8041 53.527C13.123 51.6717 4.87874 44.6163 1.8563 35.6C-1.2581 26.3094 1.0565 16.0682 7.86931 8.99493C11.9552 4.7528 16.6928 2.14782 22.5052 0.947216C33.4347 -1.31032 45.0601 3.55168 51.1215 12.9152C52.3137 14.7568 52.9362 16.0009 53.7324 18.1333C54.6517 20.5954 55.0317 22.4147 55.2062 25.1888C55.6029 31.4989 54.2817 36.5898 50.8621 41.9274L50.0023 43.2695L51.0132 44.341C51.5693 44.9303 54.5071 47.998 57.5418 51.1581C60.5765 54.3182 63.1529 57.111 63.2671 57.3644C63.8458 58.6481 63.4048 59.7217 61.6143 61.388C59.6817 63.1865 58.9714 63.6006 57.8186 63.6006H56.8692L52.6373 59.4213ZM19.4097 43.4652C20.044 42.5364 20.563 41.7278 20.563 41.6682C20.563 41.6087 20.023 41.201 19.3631 40.7623C17.149 39.2903 14.4634 36.0094 13.0763 33.0816C11.1865 29.0931 11.1484 23.6336 12.9811 19.4579C13.2635 18.8144 13.4946 18.2201 13.4946 18.1373C13.4946 17.9117 9.80801 15.8465 9.66233 15.9904C9.37196 16.2772 8.13133 19.3968 7.81704 20.6304C6.28399 26.6477 7.4074 32.9494 10.9595 38.2579C11.9816 39.7854 14.7443 42.595 16.684 44.0797C17.4425 44.6603 18.1066 45.1395 18.1598 45.1446C18.2129 45.1497 18.7754 44.394 19.4097 43.4652Z" fill="#D0D0D0"/>
</g>
<defs>
<clipPath id="clip0_49_372">
<rect width="64" height="64" fill="white"/>
</clipPath>
</defs>
</svg>
