<svg width="48" height="48" viewBox="0 0 48 48" fill="none" xmlns="http://www.w3.org/2000/svg">
<g clip-path="url(#clip0_253_444)">
<path d="M23.7449 47.0784C23.6364 47.0619 23.4484 46.9429 23.3272 46.8138L23.1067 46.5792V43.711V40.8428L23.3502 40.5993C23.5265 40.423 23.6899 40.3558 23.9422 40.3558C24.1946 40.3558 24.358 40.423 24.5343 40.5993L24.7777 40.8428V43.711V46.5792L24.5615 46.8094C24.3381 47.0472 24.0863 47.1301 23.7449 47.0784ZM7.71097 40.4549C7.43727 40.2958 7.26202 39.7815 7.37661 39.4737C7.48722 39.1765 11.002 35.6032 11.382 35.4016C11.7425 35.2103 11.9605 35.2362 12.2846 35.5089C12.5187 35.7059 12.5702 35.8184 12.5702 36.1332C12.5702 36.5095 12.5304 36.5569 10.5487 38.5386C8.68321 40.4041 8.50238 40.5598 8.20469 40.5572C8.02728 40.5556 7.8051 40.5096 7.71097 40.4549ZM37.3358 38.5386C35.3541 36.5569 35.3143 36.5095 35.3143 36.1332C35.3143 35.8184 35.3658 35.7059 35.5999 35.5089C35.9096 35.2483 36.1414 35.2111 36.4576 35.3712C36.5691 35.4277 37.5064 36.3152 38.5405 37.3434C40.564 39.3553 40.7285 39.5892 40.4709 40.0874C40.2949 40.4278 40.0688 40.56 39.6627 40.56C39.3885 40.56 39.15 40.3528 37.3358 38.5386ZM21.9463 38.8419C17.8568 38.2818 14.2871 36.1545 11.774 32.7799C11.0972 31.8712 9.99673 29.734 9.65513 28.665C8.86648 26.1972 8.70849 23.2535 9.2344 20.8261C10.5407 14.7966 15.3176 10.2182 21.4358 9.13152C22.563 8.93131 24.9906 8.90193 26.0774 9.07535C31.8277 9.99288 36.4211 13.8692 38.1932 19.2999C38.7481 21.0005 38.8886 21.9497 38.887 23.9893C38.8854 25.9927 38.7204 27.0636 38.154 28.7455C35.8693 35.5299 29.0013 39.8082 21.9463 38.8419ZM19.1613 34.4967V33.6319L18.8138 33.4662C16.7662 32.4898 14.6094 30.0211 13.7989 27.7261L13.5449 27.0069L12.7327 27.0066C12.2859 27.0065 11.9204 27.0328 11.9204 27.0652C11.9204 27.0976 12.071 27.5466 12.2551 28.0631C13.313 31.0314 15.437 33.4644 18.2794 34.9641C18.6879 35.1796 19.0534 35.3571 19.0917 35.3586C19.13 35.3601 19.1613 34.9722 19.1613 34.4966V34.4967ZM36.1403 26.0473C36.2964 25.1508 36.2703 22.493 36.0971 21.6414C35.5833 19.1159 34.5035 17.1034 32.6694 15.2531C31.571 14.1449 30.7382 13.535 29.418 12.872C28.4712 12.3965 26.7615 11.8238 26.5412 11.9083C26.4214 11.9543 26.3995 12.0972 26.4216 12.6855L26.4487 13.4064L27.2932 13.6864C28.9809 14.2461 30.4074 15.1488 31.6657 16.4532C33.4106 18.2621 34.3655 20.287 34.6721 22.8289C34.8051 23.9305 34.6896 25.6302 34.4246 26.4726C34.3785 26.6191 34.4555 26.6351 35.2057 26.6351H36.0379L36.1403 26.0473ZM1.05175 24.5071C0.866552 24.3219 0.780396 24.1427 0.780396 23.9429C0.780396 23.7431 0.866552 23.564 1.05175 23.3788L1.32311 23.1074H4.1688H7.01449L7.28585 23.3788C7.47105 23.564 7.55721 23.7431 7.55721 23.9429C7.55721 24.1427 7.47105 24.3219 7.28585 24.5071L7.01449 24.7784H4.1688H1.32311L1.05175 24.5071ZM40.5986 24.5071C40.4134 24.3219 40.3273 24.1427 40.3273 23.9429C40.3273 23.7431 40.4134 23.564 40.5986 23.3788L40.87 23.1074H43.7157H46.5614L46.8327 23.3788C47.0179 23.564 47.1041 23.7431 47.1041 23.9429C47.1041 24.1427 47.0179 24.3219 46.8327 24.5071L46.5614 24.7784H43.7157H40.87L40.5986 24.5071ZM11.3169 12.4408C10.8672 12.157 7.48239 8.69627 7.37662 8.41214C7.30423 8.2177 7.3128 8.07374 7.41071 7.83941C7.56351 7.47372 7.7971 7.3258 8.2218 7.3258C8.49595 7.3258 8.73445 7.53298 10.5487 9.34726C12.5304 11.329 12.5702 11.3763 12.5702 11.7527C12.5702 12.0674 12.5187 12.1799 12.2846 12.3769C11.9454 12.6624 11.6942 12.6789 11.3169 12.4408ZM35.5999 12.3769C35.3658 12.1799 35.3143 12.0674 35.3143 11.7527C35.3143 11.3763 35.3541 11.329 37.3358 9.34726C39.15 7.53298 39.3885 7.3258 39.6627 7.3258C40.0874 7.3258 40.321 7.47372 40.4738 7.83941C40.5717 8.07373 40.5803 8.2177 40.5079 8.41214C40.3973 8.70928 36.8825 12.2826 36.5025 12.4843C36.142 12.6756 35.924 12.6497 35.5999 12.3769ZM23.7449 7.53149C23.6364 7.51503 23.4484 7.39599 23.3272 7.26695L23.1067 7.03234V4.1641V1.29587L23.3502 1.05239C23.6856 0.716993 24.1989 0.716993 24.5343 1.05239L24.7777 1.29587V4.1641V7.03234L24.5615 7.26248C24.3381 7.50032 24.0863 7.58325 23.7449 7.53149Z" fill="#FFB800"/>
</g>
<defs>
<clipPath id="clip0_253_444">
<rect width="48" height="48" fill="white"/>
</clipPath>
</defs>
</svg>
