<svg width="74" height="277" viewBox="0 0 74 277" fill="none" xmlns="http://www.w3.org/2000/svg">
<path d="M44.6845 50.9036C42.7943 50.446 41.2043 48.8183 40.7115 46.8366C40.5903 46.3492 40.5338 46.2436 40.4182 46.288C39.8929 46.4897 38.468 46.8636 37.8763 46.9552C36.8955 47.1069 35.1106 47.0911 34.1501 46.9221C31.8677 46.5208 29.804 45.4638 28.1181 43.833C24.3259 40.1646 23.5152 34.3699 26.1667 29.885C27.808 27.1089 30.533 25.122 33.6675 24.4159C35.494 24.0045 37.8512 24.1297 39.6669 24.7346C41.5075 25.3477 42.9354 26.2296 44.2758 27.5808C46.0201 29.3392 47.2402 31.8193 47.5008 34.1364C47.7137 36.0295 47.5713 37.5051 47.007 39.2506C46.8333 39.7879 46.7104 40.2466 46.7339 40.2701C46.7574 40.2936 47.01 40.3732 47.2952 40.4471C48.5705 40.7773 49.6616 41.5414 50.393 42.6168C51.106 43.665 51.254 44.1311 51.2978 45.466C51.3293 46.4265 51.3074 46.6859 51.1515 47.1954C50.6036 48.986 49.0283 50.4715 47.2272 50.896C46.5472 51.0563 45.3301 51.06 44.6845 50.9036ZM37.0377 43.7267V43.0731L35.8626 43.0282C34.2441 42.9664 33.0926 42.5945 31.8049 41.7176C30.2879 40.6845 29.1332 39.0791 28.6006 37.2628L28.3991 36.5754H27.75H27.1009L27.1565 36.8193C27.187 36.9535 27.3312 37.4224 27.4768 37.8615C28.2245 40.1157 29.3905 41.643 31.3171 42.8913C32.7952 43.849 34.4597 44.3422 36.306 44.3695L37.0377 44.3803V43.7267ZM43.734 29.8519C43.734 29.6618 42.8019 28.6171 42.1668 28.0952C41.2551 27.346 40.2576 26.7904 39.1969 26.4408C38.6679 26.2664 38.1153 26.1106 37.969 26.0946L37.7029 26.0655V26.6789C37.7029 27.2568 37.7158 27.2961 37.9247 27.3575C38.8192 27.6204 39.1968 27.7604 39.7255 28.025C40.5261 28.4257 41.2228 28.9088 41.8714 29.5129L42.4036 30.0085L43.0688 29.9882C43.5471 29.9736 43.734 29.9353 43.734 29.8519Z" fill="#918FDA"/>
<path d="M27.7695 25.3864C27.3445 25.2279 26.8179 24.8052 26.552 24.4093C26.3303 24.0792 26.3062 23.9682 26.3075 23.2805C26.3093 22.377 26.4823 21.9873 27.0864 21.5265C27.8006 20.9818 28.7846 20.9154 29.5445 21.3608C31.0402 22.2373 31.0117 24.3467 29.493 25.1732C28.9843 25.4501 28.2001 25.5471 27.7695 25.3864Z" fill="#918FDA"/>
<path d="M22.3932 30.3387C21.2932 29.9271 20.6357 29.025 20.6317 27.9216C20.6265 26.4733 21.5939 25.4356 23.0469 25.3309C23.8136 25.2756 24.329 25.4634 24.9151 26.0116C25.4537 26.5155 25.6919 26.9734 25.7503 27.6175C25.8427 28.6362 25.3173 29.6119 24.381 30.1606C23.8978 30.4438 22.9105 30.5322 22.3932 30.3387Z" fill="#918FDA"/>
<g clip-path="url(#clip0_253_454)">
<path d="M35.8299 103.386C35.7576 103.375 35.6323 103.295 35.5514 103.209L35.4045 103.053V101.141V99.2285L35.5668 99.0662C35.6843 98.9487 35.7933 98.9039 35.9615 98.9039C36.1297 98.9039 36.2387 98.9487 36.3562 99.0662L36.5185 99.2285V101.141V103.053L36.3744 103.206C36.2254 103.365 36.0576 103.42 35.8299 103.386ZM25.1406 98.9699C24.9582 98.8639 24.8413 98.521 24.9177 98.3158C24.9915 98.1177 27.3346 95.7355 27.588 95.6011C27.8283 95.4735 27.9736 95.4908 28.1897 95.6726C28.3458 95.804 28.3801 95.8789 28.3801 96.0888C28.3801 96.3397 28.3536 96.3713 27.0325 97.6924C25.7888 98.9361 25.6683 99.0399 25.4698 99.0381C25.3515 99.0371 25.2034 99.0064 25.1406 98.9699ZM44.8905 97.6924C43.5694 96.3713 43.5429 96.3397 43.5429 96.0888C43.5429 95.8789 43.5772 95.804 43.7333 95.6726C43.9397 95.4989 44.0943 95.4741 44.3051 95.5808C44.3794 95.6185 45.0043 96.2101 45.6937 96.8956C47.0427 98.2369 47.1524 98.3928 46.9806 98.725C46.8632 98.9519 46.7125 99.04 46.4418 99.04C46.259 99.04 46.1 98.9019 44.8905 97.6924ZM34.6309 97.8946C31.9045 97.5212 29.5247 96.103 27.8493 93.8533C27.3981 93.2475 26.6645 91.8227 26.4368 91.11C25.911 89.4648 25.8057 87.5023 26.1563 85.8841C27.0272 81.8644 30.2117 78.8121 34.2905 78.0877C35.042 77.9542 36.6604 77.9346 37.3849 78.0502C41.2185 78.6619 44.2807 81.2462 45.4621 84.8666C45.8321 86.0003 45.9257 86.6331 45.9247 87.9929C45.9236 89.3285 45.8136 90.0424 45.436 91.1637C43.9129 95.6866 39.3342 98.5388 34.6309 97.8946ZM32.7742 94.9978V94.4213L32.5425 94.3108C31.1775 93.6599 29.7396 92.0141 29.1993 90.4841L29.03 90.0046L28.4884 90.0044C28.1906 90.0043 27.9469 90.0219 27.9469 90.0435C27.9469 90.065 28.0473 90.3644 28.1701 90.7088C28.8754 92.6876 30.2913 94.3096 32.1863 95.3094C32.4586 95.453 32.7023 95.5714 32.7278 95.5724C32.7533 95.5734 32.7742 95.3148 32.7742 94.9977V94.9978ZM44.0935 89.3649C44.1976 88.7672 44.1802 86.9953 44.0647 86.4276C43.7222 84.7439 43.0023 83.4023 41.7796 82.1687C41.0473 81.4299 40.4921 81.0233 39.612 80.5813C38.9808 80.2643 37.841 79.8825 37.6941 79.9389C37.6143 79.9695 37.5996 80.0648 37.6144 80.457L37.6325 80.9376L38.1954 81.1243C39.3206 81.4974 40.2716 82.0992 41.1105 82.9688C42.2738 84.1747 42.9103 85.5247 43.1148 87.2193C43.2034 87.9537 43.1264 89.0868 42.9497 89.6484C42.919 89.746 42.9703 89.7567 43.4705 89.7567H44.0253L44.0935 89.3649ZM20.7012 88.338C20.5777 88.2146 20.5203 88.0952 20.5203 87.962C20.5203 87.8287 20.5777 87.7093 20.7012 87.5859L20.8821 87.405H22.7792H24.6763L24.8572 87.5859C24.9807 87.7093 25.0381 87.8287 25.0381 87.962C25.0381 88.0952 24.9807 88.2146 24.8572 88.338L24.6763 88.519H22.7792H20.8821L20.7012 88.338ZM47.0658 88.338C46.9423 88.2146 46.8849 88.0952 46.8849 87.962C46.8849 87.8287 46.9423 87.7093 47.0658 87.5859L47.2467 87.405H49.1438H51.0409L51.2218 87.5859C51.3453 87.7093 51.4027 87.8287 51.4027 87.962C51.4027 88.0952 51.3453 88.2146 51.2218 88.338L51.0409 88.519H49.1438H47.2467L47.0658 88.338ZM27.5446 80.2939C27.2448 80.1047 24.9883 77.7975 24.9177 77.6081C24.8695 77.4785 24.8752 77.3825 24.9405 77.2263C25.0423 76.9825 25.1981 76.8839 25.4812 76.8839C25.664 76.8839 25.823 77.022 27.0325 78.2315C28.3536 79.5527 28.3801 79.5842 28.3801 79.8351C28.3801 80.045 28.3458 80.12 28.1897 80.2513C27.9636 80.4416 27.7962 80.4526 27.5446 80.2939ZM43.7333 80.2513C43.5772 80.12 43.5429 80.045 43.5429 79.8351C43.5429 79.5842 43.5694 79.5527 44.8905 78.2315C46.1 77.022 46.259 76.8839 46.4418 76.8839C46.7249 76.8839 46.8807 76.9825 46.9825 77.2263C47.0478 77.3825 47.0535 77.4785 47.0053 77.6081C46.9315 77.8062 44.5883 80.1884 44.335 80.3228C44.0947 80.4504 43.9493 80.4331 43.7333 80.2513ZM35.8299 77.021C35.7576 77.01 35.6323 76.9307 35.5514 76.8446L35.4045 76.6882V74.7761V72.8639L35.5668 72.7016C35.7904 72.478 36.1326 72.478 36.3562 72.7016L36.5185 72.8639V74.7761V76.6882L36.3744 76.8417C36.2254 77.0002 36.0576 77.0555 35.8299 77.021Z" fill="#FFB800"/>
</g>
<g clip-path="url(#clip1_253_454)">
<path d="M44.4524 142.367C43.5345 142.065 42.996 141.754 42.38 141.173C41.6864 140.519 41.2627 139.902 40.9767 139.13C40.3326 137.391 40.5637 136.132 42.1065 132.975C42.93 131.29 44.1115 129.219 45.2776 127.415L45.9156 126.428L46.3841 127.159C47.2481 128.507 48.7252 131.036 49.3468 132.23C50.833 135.086 51.329 136.708 51.1154 138.013C50.9684 138.91 50.7424 139.502 50.2783 140.206C49.2668 141.741 47.6677 142.577 45.7564 142.57C45.2722 142.569 44.876 142.507 44.4524 142.367ZM47.4343 140.559C48.1222 140.235 48.8979 139.466 49.2306 138.778C49.5234 138.172 49.7037 136.979 49.5724 136.515C49.4891 136.221 49.4854 136.219 48.9072 136.194L48.3257 136.168L48.376 136.851C48.4388 137.705 48.2263 138.349 47.7017 138.894C47.3596 139.25 46.5975 139.68 46.3068 139.682C45.9413 139.684 45.8868 139.772 45.8868 140.362V140.934L46.3866 140.875C46.6616 140.843 47.133 140.701 47.4343 140.559Z" fill="#44C7F3"/>
<path d="M28.7829 155.245C25.6502 154.518 23.1771 152.625 21.7856 149.889C20.9543 148.255 20.6295 146.818 20.6973 145.075C20.7332 144.153 20.7931 143.755 21.0099 142.997C22.0633 139.315 24.9826 133.616 29.4038 126.609C30.5272 124.828 30.7255 124.54 30.7854 124.604C30.8075 124.627 31.4102 125.574 32.1248 126.707C36.7392 134.024 39.7545 140.007 40.5861 143.496C40.8203 144.479 40.8168 146.229 40.5782 147.41C39.9478 150.53 37.6392 153.353 34.7143 154.581C33.2842 155.181 32.6774 155.303 30.931 155.338C29.7476 155.362 29.1802 155.338 28.7829 155.245ZM32.235 152.834V152.22L31.5613 152.219C29.5014 152.217 27.5619 151.423 26.1045 149.984C25.0175 148.911 24.406 147.894 23.9823 146.455L23.7951 145.82H23.1925H22.5898L22.644 146.105C22.7326 146.57 23.2756 148.094 23.5441 148.63C23.8819 149.305 24.7479 150.449 25.3034 150.954C27.123 152.609 29.1055 153.413 31.4309 153.438L32.235 153.447V152.834Z" fill="#44C7F3"/>
</g>
<g clip-path="url(#clip2_253_454)">
<path d="M20.4924 207.299C20.4924 207.084 20.9747 205.751 21.2948 205.08C22.2426 203.093 23.5118 201.833 25.3756 201.03L25.9548 200.78L26.3624 199.98C26.8072 199.107 27.2162 198.497 27.7463 197.917C28.9952 196.551 30.7504 195.979 31.917 196.559C32.7895 196.993 33.6057 197.85 34.064 198.814C34.2133 199.128 34.3705 199.457 34.4133 199.546C34.4719 199.668 34.6297 199.755 35.0525 199.897C36.2736 200.306 37.2574 200.931 38.1166 201.841C38.899 202.67 39.4977 203.695 39.8941 204.885C40.1228 205.571 40.3658 206.734 40.3658 207.141V207.408H30.4291C21.3057 207.408 20.4924 207.399 20.4924 207.299ZM23.6845 205.948C24.0594 205.225 24.3388 204.852 24.918 204.3L25.3936 203.848V203.248C25.3936 202.918 25.3643 202.63 25.3285 202.608C25.1378 202.49 24.0114 203.39 23.4117 204.139C23.1649 204.447 22.8109 205.01 22.605 205.422C22.2576 206.117 22.1776 206.385 22.2853 206.492C22.3113 206.518 22.5722 206.531 22.8651 206.52L23.3977 206.501L23.6845 205.948ZM41.7445 207.089C41.2358 202.98 39.3154 200.263 36.2031 199.248C35.5173 199.025 35.4904 199.006 35.4352 198.712C35.4113 198.584 35.2567 198.211 35.0917 197.881C34.7734 197.245 34.1121 196.46 33.59 196.098C33.4394 195.994 33.3161 195.873 33.3161 195.83C33.3161 195.703 34.0266 194.871 34.7572 194.143C35.4379 193.464 36.1723 192.895 36.7458 192.602C37.0052 192.469 37.082 192.381 37.2351 192.04C37.5522 191.333 37.7001 190.61 37.661 189.957C37.6217 189.301 37.5154 188.887 37.3724 188.832C37.3185 188.811 37.0803 188.887 36.8431 189C36.1959 189.309 35.336 189.597 34.5708 189.761C34.0361 189.875 33.6669 189.907 32.8797 189.905C31.9885 189.903 31.8048 189.882 31.2833 189.725C29.6523 189.234 27.8653 187.921 26.471 186.187C25.5287 185.016 25.1414 184.202 25.3368 183.803C25.4764 183.518 25.7027 183.388 26.6085 183.072C28.2702 182.493 29.7821 182.254 31.3691 182.319C33.1777 182.393 34.6334 182.881 35.9496 183.854C36.1979 184.037 36.432 184.168 36.4699 184.145C36.5115 184.119 36.5388 183.746 36.5388 183.206C36.5388 181.895 36.7478 180.968 37.2262 180.155C37.5011 179.689 38.4581 178.712 38.9894 178.356C40.2217 177.53 41.9136 176.993 43.2861 176.993C43.7726 176.993 43.87 177.013 43.9819 177.133C44.1681 177.333 44.1917 177.491 44.2369 178.84C44.2975 180.645 44.1106 181.776 43.5608 182.935C43.0518 184.008 42.3732 184.684 41.1776 185.309C40.5194 185.653 39.1879 186.133 38.6408 186.223C38.486 186.248 38.3304 186.304 38.2951 186.348C38.2518 186.401 38.3262 186.624 38.5226 187.031C39.0254 188.072 39.1773 188.696 39.1844 189.75C39.1897 190.525 39.1677 190.729 39.0326 191.16C38.9458 191.437 38.83 191.75 38.7753 191.856C38.6492 192.1 38.7108 192.166 39.174 192.283C40.8933 192.717 42.7022 194.428 43.8787 196.732C44.1144 197.194 44.3757 197.746 44.4594 197.958C44.6099 198.341 44.6177 198.348 45.1754 198.609C46.5075 199.233 47.8498 200.19 48.8362 201.217C50.3856 202.832 51.2852 204.772 51.4804 206.921L51.5246 207.408H46.6543H41.7839L41.7445 207.089Z" fill="#F1AA3F"/>
</g>
<path d="M26.7948 259.962C25.5044 259.768 24.3729 258.608 24.1583 257.259C23.9133 255.719 25.0087 254.014 26.453 253.688L26.7845 253.613L26.8253 236.353L26.6391 236.157C26.5367 236.049 26.0903 235.609 25.6471 235.179L24.8411 234.397L24.3871 234.542C23.7567 234.742 22.8964 234.743 22.3084 234.543C20.8497 234.047 19.8849 232.598 20.0111 231.093C20.159 229.328 21.5867 228 23.3363 228C24.2774 228 24.9992 228.306 25.6952 229C26.7268 230.029 26.9735 231.575 26.3149 232.883L26.1427 233.225L26.8272 233.916L27.5116 234.607H30.5466H33.5816V238.645C33.5816 238.645 33.5607 240.246 34.1564 240.408C35.1452 240.677 35.1015 240.428 36.4563 238.365L38.9197 234.615C41.6067 234.613 44.2938 234.61 46.9808 234.607L40.7598 242.969L46.7873 250.522C46.8266 250.565 46.8783 250.565 46.9354 250.522C47.7437 249.921 48.5151 249.702 49.3847 249.826C51.0366 250.062 52.234 251.685 51.9612 253.319C51.7372 254.66 50.7216 255.682 49.3887 255.907C47.7655 256.182 46.1529 254.977 45.9186 253.314C45.8483 252.815 45.9145 252.184 46.0787 251.788C46.1287 251.668 46.1523 251.552 46.1311 251.53L39.3176 251.487L36.7691 247.86C35.3675 245.866 35.0831 245.254 33.9629 245.653C33.4169 245.848 33.5816 247.353 33.5816 247.353V251.49L28.575 251.525L28.5434 253.794L28.9339 254.018C30.1433 254.713 30.7724 256.192 30.4296 257.534C30.2778 258.129 30.0106 258.611 29.6024 259.027C28.8635 259.781 27.8443 260.12 26.7948 259.962Z" fill="#C83737"/>
<rect x="0.5" y="0.5" width="73" height="276" rx="4.5" stroke="#9747FF" stroke-dasharray="10 5"/>
<defs>
<clipPath id="clip0_253_454">
<rect width="32" height="32" fill="white" transform="translate(20 72)"/>
</clipPath>
<clipPath id="clip1_253_454">
<rect width="32" height="32" fill="white" transform="translate(20 124)"/>
</clipPath>
<clipPath id="clip2_253_454">
<rect width="32" height="32" fill="white" transform="translate(20 176)"/>
</clipPath>
</defs>
</svg>
