<svg width="163" height="163" viewBox="0 0 163 163" fill="none" xmlns="http://www.w3.org/2000/svg">
<path d="M81.75 162.357C126.426 162.357 162.643 126.14 162.643 81.4643C162.643 36.7884 126.426 0.571411 81.75 0.571411C37.0741 0.571411 0.857178 36.7884 0.857178 81.4643C0.857178 126.14 37.0741 162.357 81.75 162.357Z" fill="#F9F9F9"/>
<path d="M32.2989 95.4012V68.4933L55.1953 55.3171C67.7884 48.0702 78.7828 41.7274 79.6274 41.222C80.7799 40.5324 87.2292 43.8053 105.478 54.3406L129.793 68.378V95.3292V132.28H122.429H115.064L114.797 103.323L114.529 84.3657H103.348H92.1677L92.0232 103.077L91.8788 131.788L62.0888 132.049L32.2988 132.309L32.2989 95.4012ZM76.6146 94.1843V83.8145L64.0585 84.0901L51.5023 84.3657L51.2154 93.1509C51.0575 97.9828 51.1545 102.525 51.4306 103.245C51.8114 104.237 54.9177 104.554 64.2738 104.554H76.6146V94.1843ZM19.954 64.1099C18.6113 61.5133 18.558 60.8114 19.6499 60.1036C25.7433 56.1536 80.7578 24.7857 81.592 24.7857C82.5834 24.7857 142.044 58.6517 143.911 60.2796C144.363 60.674 144.002 62.4097 143.109 64.1365C141.604 67.048 141.329 67.177 139.333 65.9115C138.148 65.1609 124.674 57.3351 109.39 48.5209L81.6014 32.4951L55.2247 47.733C40.7175 56.1139 27.2131 63.9356 25.215 65.1146L21.582 67.2581L19.954 64.1099Z" fill="#03BA6D"/>
</svg>
