<svg width="163" height="163" viewBox="0 0 163 163" fill="none" xmlns="http://www.w3.org/2000/svg">
<g id="Property 1=B2">
<g id="layer1">
<path id="path8092" d="M81.75 162.357C126.426 162.357 162.643 126.14 162.643 81.4643C162.643 36.7884 126.426 0.571411 81.75 0.571411C37.0741 0.571411 0.857178 36.7884 0.857178 81.4643C0.857178 126.14 37.0741 162.357 81.75 162.357Z" fill="#F9F9F9"/>
<path id="path8269" d="M43.4573 86.5858V31.5858H82.2358H121.014V86.5858V141.586H105.378H89.7414V133.666V125.746H82.2358H74.7303V133.666V141.586H59.0938H43.4573V86.5858ZM113.509 112.106V109.026H82.2358H50.9628V112.106V115.186H82.2358H113.509V112.106ZM113.509 99.7857V96.7057H82.2358H50.9628V99.7857V102.866H82.2358H113.509V99.7857ZM113.509 87.0258V84.3857H82.2358H50.9628V87.0258V89.6657H82.2358H113.509V87.0258ZM113.275 74.4857L112.883 71.6257H82.2358H51.5883L51.1963 74.4857L50.8043 77.3457H82.2358H113.667L113.275 74.4857ZM113.509 61.9457V58.8657H82.2358H50.9628V61.9457V65.0258H82.2358H113.509V61.9457ZM113.509 49.6257V46.5457H82.2358H50.9628V49.6257V52.7057H82.2358H113.509V49.6257Z" fill="#03BA6D"/>
</g>
</g>
</svg>
