<svg width="163" height="163" viewBox="0 0 163 163" fill="none" xmlns="http://www.w3.org/2000/svg">
<path d="M81.75 162.357C126.426 162.357 162.643 126.14 162.643 81.4643C162.643 36.7884 126.426 0.571411 81.75 0.571411C37.0741 0.571411 0.857178 36.7884 0.857178 81.4643C0.857178 126.14 37.0741 162.357 81.75 162.357Z" fill="#F9F9F9"/>
<path d="M27.1418 125.074L25.105 122.319L53.3637 122.054C68.906 121.908 94.6117 121.908 110.487 122.054L139.352 122.319L137.315 125.074L135.279 127.829H82.2286H29.1786L27.1418 125.074ZM33.9215 114.054L34.2194 111.298L82.4639 111.039L130.708 110.779V113.794V116.809H82.1661H33.6237L33.9215 114.054ZM42.2209 83.2474V59.7045H48.3397H54.4586V83.2474V106.79H48.3397H42.2209V83.2474ZM64.8135 83.2474V59.7045H70.9323H77.0511V83.2474V106.79H70.9323H64.8135V83.2474ZM88.1452 83.2482L88.4137 59.7045H94.0287H99.6437V83.2474V106.79L93.7602 106.791L87.8767 106.792L88.1452 83.2482ZM110.94 83.2474V59.7045H116.555H122.17L122.438 83.2482L122.707 106.792L116.823 106.791L110.94 106.79V83.2474ZM33.7487 52.6918V49.6863H82.2286H130.708V52.6918V55.6973H82.2286H33.7487V52.6918ZM58.6947 34.1533C71.1206 28.3814 81.8394 23.6544 82.5142 23.6489C83.6495 23.6389 126.929 43.3382 127.806 44.2634C128.022 44.4909 107.477 44.6705 82.1501 44.6624L36.1021 44.6474L58.6947 34.1533Z" fill="#03BA6D"/>
</svg>
