<svg width="163" height="163" viewBox="0 0 163 163" fill="none" xmlns="http://www.w3.org/2000/svg">
<path d="M81.75 162.357C126.426 162.357 162.643 126.14 162.643 81.4643C162.643 36.7884 126.426 0.571411 81.75 0.571411C37.0741 0.571411 0.857178 36.7884 0.857178 81.4643C0.857178 126.14 37.0741 162.357 81.75 162.357Z" fill="#F9F9F9"/>
<path d="M39.2572 140.581V105.963V73.3461H46.5091H53.761V55.1946V37.0431L67.9812 26.7856L82.2014 16.5283L96.3845 26.8124L110.568 37.0967V55.2214V73.3461H117.82H125.071V106.422V140.382L39.2572 140.581ZM68.2648 118.363V110.933H57.9913H47.7178V118.363V125.793H57.9913H68.2648V118.363ZM92.4379 118.363V110.933H82.1644H71.8908V118.363V125.793H82.1644H92.4379V118.363ZM116.611 118.363V110.933H106.337H96.0639V118.363V125.793H106.337H116.611V118.363ZM68.2648 100.007V92.5765H57.9913H47.7178V100.007V107.436H57.9913H68.2648V100.007ZM92.4379 100.007V92.5765H82.1644H71.8908V100.007V107.436H82.1644H92.4379V100.007ZM116.611 100.007V92.5765H106.337H96.0639V100.007V107.436H106.337H116.611V100.007ZM80.9557 61.9826V57.175L74.0059 56.9128L67.0562 56.6507V61.9826V67.3145L74.0059 67.0524L80.9557 66.7902V61.9826ZM97.2725 61.9391V56.6508L90.3228 56.913L83.373 57.1751L83.2471 66.6722L97.2725 67.2274V61.9391ZM80.9557 49.7452V44.9376L74.0059 44.6754L67.0562 44.4133V49.7452V55.0771L74.0059 54.8149L80.9557 54.5528V49.7452ZM97.2725 49.7017V44.4134L90.3228 44.6755L83.373 44.9377L83.2471 54.9398L97.2725 54.9899V49.7017Z" fill="#03BA6D"/>
</svg>
