<svg width="162" height="162" viewBox="0 0 162 162" fill="none" xmlns="http://www.w3.org/2000/svg">
<path d="M81 161.893C125.676 161.893 161.893 125.676 161.893 81C161.893 36.3241 125.676 0.107117 81 0.107117C36.3241 0.107117 0.107178 36.3241 0.107178 81C0.107178 125.676 36.3241 161.893 81 161.893Z" fill="#F9F9F9"/>
<path d="M119.376 122.164V114.962H112.217H105.058V122.495V130.029L119.365 129.923L119.376 122.164ZM73.0119 136.069L73.0536 82.3919V25.8759H99.5838H126.114V74.7985L126.33 136.124M94.1093 122.535V114.962H86.9504H79.7914V122.535V130.107H86.9504H94.1093V122.535ZM94.1093 96.6995V89.1271H86.9504H79.7914V96.6995V104.272H86.9504H94.1093V96.6995ZM119.376 96.6995V89.1271H112.217H105.058V96.6995V104.272H112.217H119.376V96.6995ZM94.1093 71.7554V64.183H86.9504H79.7914V71.7554V79.3277H86.9504H94.1093V71.7554ZM119.376 71.7554V64.183H112.217H105.058V71.7554V79.3277H112.217H119.376V71.7554ZM94.1093 45.9203V38.348H86.9504H79.7914V45.9203V53.4927H86.9504H94.1093V45.9203ZM119.376 45.9203V38.348H112.217H105.058V45.9203V53.4927H112.217H119.376V45.9203ZM35.839 136.023L35.6699 84.0859L69.4466 89.0925L69.6699 115.15L69.3667 136.086M39.4145 122.672L48.6942 122.841L48.8121 112.7H39.5476L39.4586 122.671M65.6567 117.6V112.7H60.6033H55.5499V117.6V122.5H60.6033H65.6567V117.6ZM48.8121 101.119V95.774H44.1799H39.5476V101.119V106.464H44.1799H48.8121V101.119ZM65.8234 95.5077L55.5542 95.3323L55.624 106.229L65.6567 106.464L65.8234 95.5077Z" fill="#03BA6D"/>
</svg>
