<svg width="162" height="162" viewBox="0 0 162 162" fill="none" xmlns="http://www.w3.org/2000/svg">
<path d="M81 161.893C125.676 161.893 161.893 125.676 161.893 81C161.893 36.3241 125.676 0.107117 81 0.107117C36.3241 0.107117 0.107178 36.3241 0.107178 81C0.107178 125.676 36.3241 161.893 81 161.893Z" fill="#F9F9F9"/>
<path d="M40.0456 143.114L40.18 98.1832L39.9572 56.4665L56.2279 47.1357C65.1767 42.0038 74.5054 36.6441 76.9584 35.2252L81.4182 32.6453L101.926 44.5752L122.434 56.5051L122.688 98.8566L122.943 143.208L40.0456 143.114ZM78.0003 119.184V112.871H67.7464H57.4925V119.184V129.497H67.7464H78.0003V119.184ZM104.367 119.184V112.871H94.1135H83.8596V119.184V129.497H94.1135H104.367V119.184ZM78.0003 98.6647V88.3518H67.7464H57.4925V98.6647V104.978H67.7464H78.0003V98.6647ZM104.367 98.6647V88.3518H94.1135H83.8596V98.6647V104.978H94.1135H104.367V98.6647ZM78.0003 74.1458V63.8328H67.7464H57.4925V74.1458V80.4587H67.7464H78.0003V74.1458ZM104.367 74.1458V63.8328H94.1135H83.8596V74.1458V80.4587H94.1135H104.367V74.1458ZM28.3805 52.5533C27.137 49.8084 23.897 51.9899 63.1135 29.1672L80.9413 18.7921L106.97 33.9062C121.286 42.219 133.404 49.4282 133.9 49.9266C135.234 51.2681 132.528 55.1408 130.736 54.454C129.93 54.1446 118.664 47.7307 105.703 40.2007C92.7406 32.6708 81.6208 26.5099 80.9917 26.5099C80.3626 26.5099 68.8191 32.9187 55.3394 40.7516C41.8597 48.5845 30.5282 54.9932 30.1584 54.9932C29.7885 54.9932 28.9885 53.8953 28.3805 52.5533Z" fill="#03BA6D"/>
</svg>
