<svg width="162" height="162" viewBox="0 0 162 162" fill="none" xmlns="http://www.w3.org/2000/svg">
<path d="M81 161.893C125.676 161.893 161.893 125.676 161.893 81C161.893 36.3241 125.676 0.107117 81 0.107117C36.3241 0.107117 0.107178 36.3241 0.107178 81C0.107178 125.676 36.3241 161.893 81 161.893Z" fill="#F9F9F9"/>
<path d="M36.7929 137.892L36.4358 84.172V35.8088H80.6429H124.85L125.564 138.064L36.7929 137.892ZM65.2665 109.993H45.085V129.781H65.2665V109.993ZM91.2142 97.9926H71.0327V117.781H91.2142V97.9926ZM116.922 109.993H96.9804V129.781H116.922V109.993ZM65.2665 83.2788H45.085V104.056H65.2665V83.2788ZM91.2142 71.2788H71.0327V92.0562H91.2142V71.2788ZM116.922 83.4915H96.9804V103.843H116.922V83.4915ZM65.2665 56.5649H45.085V77.3424H65.2665V56.5649ZM91.2142 44.5649H71.0327V65.3424H91.2142V44.5649ZM116.922 56.7777H96.9804V77.1296H116.922V56.7777ZM36.4358 27.8936V23.936H80.6429H124.85V27.8936V31.8512H80.6429H36.4358V27.8936Z" fill="#03BA6D"/>
</svg>
