<svg width="162" height="162" viewBox="0 0 162 162" fill="none" xmlns="http://www.w3.org/2000/svg">
<path d="M81 161.893C125.676 161.893 161.893 125.676 161.893 81C161.893 36.3241 125.676 0.107117 81 0.107117C36.3241 0.107117 0.107178 36.3241 0.107178 81C0.107178 125.676 36.3241 161.893 81 161.893Z" fill="#F9F9F9"/>
<path d="M37.3456 104.036L37.5834 75.6201L58.9749 61.3643C70.7402 53.5236 80.8051 47.116 81.3412 47.1252C81.8774 47.1342 91.9783 53.5561 103.788 61.3955L125.259 75.649L125.497 104.051L125.735 132.452H108.275H90.8152V111.853V91.5449H81.3471H71.9868V112.144V132.452H54.6012H37.1078L37.3456 104.036ZM24.4369 71.4965L22.9851 67.9974L51.987 48.7727L80.9889 29.548L95.5196 39.2419L110.05 48.9359L110.31 40.8245L110.57 32.7131H116.769H122.968L123.219 45.2725L123.47 57.8318L131.243 62.9275L139.015 68.0231L137.735 70.8677C137.031 72.4322 136.039 74.0079 135.53 74.3693C135.021 74.7308 122.852 67.2412 108.488 57.7257C94.1244 48.2103 81.9273 40.2911 81.3837 40.1274C80.8402 39.9638 68.7728 47.5495 54.5672 56.9844C40.3616 66.4194 28.0976 74.3316 27.3138 74.5672C26.3802 74.8478 25.388 73.7887 24.4369 71.4965Z" fill="#03BA6D"/>
</svg>
