<svg width="162" height="162" viewBox="0 0 162 162" fill="none" xmlns="http://www.w3.org/2000/svg">
<path d="M81 161.893C125.676 161.893 161.893 125.676 161.893 81C161.893 36.3241 125.676 0.107117 81 0.107117C36.3241 0.107117 0.107178 36.3241 0.107178 81C0.107178 125.676 36.3241 161.893 81 161.893Z" fill="#F9F9F9"/>
<path d="M33.1611 143.004V87.4072V39.4607L61.5475 29.3794L91.603 18.9963L92.628 46.9025L92.8766 75.1105L110.73 84.9601L128.839 94.8098V111.833V128.857V143.004H33.1611ZM104.437 123.799V118.976H99.9732H95.2257V124.079V129.371H99.6891H104.437V123.799ZM121.066 124.029V119.436H116.368H111.435V129.371H116.593H121.066V124.029ZM82.8319 124.948V121.732H61.8677H40.9817V124.948V128.163H61.8677H82.8319V124.948ZM82.8319 110.708V107.033H61.8677H40.9817V110.708V114.383H61.8677H82.8319V110.708ZM104.437 108.871V104.459H99.924H95.2257V108.871V113.282H99.924H104.437V108.871ZM121.066 108.871V104.459H116.133H111.435V108.871V113.282H116.133H121.066V108.871ZM82.8319 96.2385V92.7935H61.8677H40.9817V96.2385V99.6837H61.8677H82.8319V96.2385ZM82.8319 81.7692V78.5538H61.8677H40.9817V81.7692V84.9846H61.8677H82.8319V81.7692ZM82.8319 67.5295V63.8547H61.8677H40.9817V66.9171V70.898H62.4941H82.8319V67.5295ZM82.8319 52.8304V49.1556H61.8677H40.9817V52.8304V56.5052H61.8677H82.8319V52.8304Z" fill="#03BA6D"/>
</svg>
