<svg width="1522" height="190" viewBox="0 0 1522 190" fill="none" xmlns="http://www.w3.org/2000/svg">
<g id="School Avatar">
<g id="Property 1=B1">
<g id="layer1">
<path id="path8092" d="M94.75 176.357C139.426 176.357 175.643 140.14 175.643 95.4643C175.643 50.7884 139.426 14.5714 94.75 14.5714C50.0741 14.5714 13.8572 50.7884 13.8572 95.4643C13.8572 140.14 50.0741 176.357 94.75 176.357Z" fill="#F9F9F9"/>
<path id="path8254" d="M45.2989 109.401V82.4933L68.1953 69.3171C80.7884 62.0702 91.7828 55.7274 92.6274 55.222C93.7799 54.5324 100.229 57.8053 118.478 68.3406L142.793 82.378V109.329V146.28H135.429H128.064L127.797 117.323L127.529 98.3657H116.348H105.168L105.023 117.077L104.879 145.788L75.0888 146.049L45.2988 146.309L45.2989 109.401ZM89.6146 108.184V97.8145L77.0585 98.0901L64.5023 98.3657L64.2154 107.151C64.0575 111.983 64.1545 116.525 64.4306 117.245C64.8114 118.237 67.9177 118.554 77.2738 118.554H89.6146V108.184ZM32.954 78.1099C31.6113 75.5133 31.558 74.8114 32.6499 74.1036C38.7433 70.1536 93.7578 38.7857 94.592 38.7857C95.5834 38.7857 155.044 72.6517 156.911 74.2796C157.363 74.674 157.002 76.4097 156.109 78.1365C154.604 81.048 154.329 81.177 152.333 79.9115C151.148 79.1609 137.674 71.3351 122.39 62.5209L94.6014 46.4951L68.2247 61.733C53.7175 70.1139 40.2131 77.9356 38.215 79.1146L34.582 81.2581L32.954 78.1099Z" fill="#03BA6D"/>
</g>
</g>
<g id="Property 1=B2">
<g id="layer1_2">
<path id="path8092_2" d="M259.75 176.357C304.426 176.357 340.643 140.14 340.643 95.4643C340.643 50.7884 304.426 14.5714 259.75 14.5714C215.074 14.5714 178.857 50.7884 178.857 95.4643C178.857 140.14 215.074 176.357 259.75 176.357Z" fill="#F9F9F9"/>
<path id="path8269" d="M221.457 100.586V45.5858H260.236H299.014V100.586V155.586H283.378H267.741V147.666V139.746H260.236H252.73V147.666V155.586H237.094H221.457V100.586ZM291.509 126.106V123.026H260.236H228.963V126.106V129.186H260.236H291.509V126.106ZM291.509 113.786V110.706H260.236H228.963V113.786V116.866H260.236H291.509V113.786ZM291.509 101.026V98.3857H260.236H228.963V101.026V103.666H260.236H291.509V101.026ZM291.275 88.4857L290.883 85.6257H260.236H229.588L229.196 88.4857L228.804 91.3457H260.236H291.667L291.275 88.4857ZM291.509 75.9457V72.8657H260.236H228.963V75.9457V79.0258H260.236H291.509V75.9457ZM291.509 63.6257V60.5457H260.236H228.963V63.6257V66.7057H260.236H291.509V63.6257Z" fill="#03BA6D"/>
</g>
</g>
<g id="Property 1=B3">
<g id="layer1_3">
<path id="path8092_3" d="M424.75 176.357C469.426 176.357 505.643 140.14 505.643 95.4643C505.643 50.7884 469.426 14.5714 424.75 14.5714C380.074 14.5714 343.857 50.7884 343.857 95.4643C343.857 140.14 380.074 176.357 424.75 176.357Z" fill="#F9F9F9"/>
<path id="path8282" d="M370.142 139.074L368.105 136.319L396.364 136.054C411.906 135.908 437.612 135.908 453.487 136.054L482.352 136.319L480.315 139.074L478.279 141.829H425.229H372.179L370.142 139.074ZM376.922 128.054L377.219 125.298L425.464 125.039L473.708 124.779V127.794V130.809H425.166H376.624L376.922 128.054ZM385.221 97.2474V73.7045H391.34H397.459V97.2474V120.79H391.34H385.221V97.2474ZM407.813 97.2474V73.7045H413.932H420.051V97.2474V120.79H413.932H407.813V97.2474ZM431.145 97.2482L431.414 73.7045H437.029H442.644V97.2474V120.79L436.76 120.791L430.877 120.792L431.145 97.2482ZM453.94 97.2474V73.7045H459.555H465.17L465.438 97.2482L465.707 120.792L459.823 120.791L453.94 120.79V97.2474ZM376.749 66.6918V63.6863H425.229H473.708V66.6918V69.6973H425.229H376.749V66.6918ZM401.695 48.1533C414.121 42.3814 424.839 37.6544 425.514 37.6489C426.65 37.6389 469.929 57.3382 470.806 58.2634C471.022 58.4909 450.477 58.6705 425.15 58.6624L379.102 58.6474L401.695 48.1533Z" fill="#03BA6D"/>
</g>
</g>
<g id="Property 1=B4">
<g id="layer1_4">
<path id="path8092_4" d="M589.75 176.357C634.426 176.357 670.643 140.14 670.643 95.4643C670.643 50.7884 634.426 14.5714 589.75 14.5714C545.074 14.5714 508.857 50.7884 508.857 95.4643C508.857 140.14 545.074 176.357 589.75 176.357Z" fill="#F9F9F9"/>
<path id="path8295" d="M547.257 154.581V119.963V87.3461H554.509H561.761V69.1946V51.0431L575.981 40.7856L590.201 30.5283L604.385 40.8124L618.568 51.0967V69.2214V87.3461H625.82H633.071V120.422V154.382L547.257 154.581ZM576.265 132.363V124.933H565.991H555.718V132.363V139.793H565.991H576.265V132.363ZM600.438 132.363V124.933H590.164H579.891V132.363V139.793H590.164H600.438V132.363ZM624.611 132.363V124.933H614.337H604.064V132.363V139.793H614.337H624.611V132.363ZM576.265 114.007V106.577H565.991H555.718V114.007V121.436H565.991H576.265V114.007ZM600.438 114.007V106.577H590.164H579.891V114.007V121.436H590.164H600.438V114.007ZM624.611 114.007V106.577H614.337H604.064V114.007V121.436H614.337H624.611V114.007ZM588.956 75.9826V71.175L582.006 70.9128L575.056 70.6507V75.9826V81.3145L582.006 81.0524L588.956 80.7902V75.9826ZM605.272 75.9391V70.6508L598.323 70.913L591.373 71.1751L591.247 80.6722L605.272 81.2274V75.9391ZM588.956 63.7452V58.9376L582.006 58.6754L575.056 58.4133V63.7452V69.0771L582.006 68.8149L588.956 68.5528V63.7452ZM605.272 63.7017V58.4134L598.323 58.6755L591.373 58.9377L591.247 68.9398L605.272 68.9899V63.7017Z" fill="#03BA6D"/>
</g>
</g>
<g id="Property 1=B5">
<g id="layer1_5">
<path id="path8092-6" d="M755 175.893C799.676 175.893 835.893 139.676 835.893 95C835.893 50.3241 799.676 14.1071 755 14.1071C710.324 14.1071 674.107 50.3241 674.107 95C674.107 139.676 710.324 175.893 755 175.893Z" fill="#F9F9F9"/>
<path id="path8308" d="M793.376 136.164V128.962H786.217H779.058V136.495V144.029L793.365 143.923L793.376 136.164ZM747.012 150.069L747.054 96.3919V39.8759H773.584H800.114V88.7985L800.33 150.124M768.109 136.535V128.962H760.95H753.791V136.535V144.107H760.95H768.109V136.535ZM768.109 110.699V103.127H760.95H753.791V110.699V118.272H760.95H768.109V110.699ZM793.376 110.699V103.127H786.217H779.058V110.699V118.272H786.217H793.376V110.699ZM768.109 85.7554V78.183H760.95H753.791V85.7554V93.3277H760.95H768.109V85.7554ZM793.376 85.7554V78.183H786.217H779.058V85.7554V93.3277H786.217H793.376V85.7554ZM768.109 59.9203V52.348H760.95H753.791V59.9203V67.4927H760.95H768.109V59.9203ZM793.376 59.9203V52.348H786.217H779.058V59.9203V67.4927H786.217H793.376V59.9203ZM709.839 150.023L709.67 98.0859L743.447 103.093L743.67 129.15L743.367 150.086M713.414 136.672L722.694 136.841L722.812 126.7H713.548L713.459 136.671M739.657 131.6V126.7H734.603H729.55V131.6V136.5H734.603H739.657V131.6ZM722.812 115.119V109.774H718.18H713.548V115.119V120.464H718.18H722.812V115.119ZM739.823 109.508L729.554 109.332L729.624 120.229L739.657 120.464L739.823 109.508Z" fill="#03BA6D"/>
</g>
</g>
<g id="Property 1=B6">
<g id="layer1_6">
<path id="path8092-5" d="M920 175.893C964.676 175.893 1000.89 139.676 1000.89 95C1000.89 50.3241 964.676 14.1071 920 14.1071C875.324 14.1071 839.107 50.3241 839.107 95C839.107 139.676 875.324 175.893 920 175.893Z" fill="#F9F9F9"/>
<path id="path8371" d="M879.046 157.114L879.18 112.183L878.957 70.4665L895.228 61.1357C904.177 56.0038 913.505 50.6441 915.958 49.2252L920.418 46.6453L940.926 58.5752L961.434 70.5051L961.688 112.857L961.943 157.208L879.046 157.114ZM917 133.184V126.871H906.746H896.493V133.184V143.497H906.746H917V133.184ZM943.367 133.184V126.871H933.114H922.86V133.184V143.497H933.114H943.367V133.184ZM917 112.665V102.352H906.746H896.493V112.665V118.978H906.746H917V112.665ZM943.367 112.665V102.352H933.114H922.86V112.665V118.978H933.114H943.367V112.665ZM917 88.1458V77.8328H906.746H896.493V88.1458V94.4587H906.746H917V88.1458ZM943.367 88.1458V77.8328H933.114H922.86V88.1458V94.4587H933.114H943.367V88.1458ZM867.381 66.5533C866.137 63.8084 862.897 65.9899 902.113 43.1672L919.941 32.7921L945.97 47.9062C960.286 56.219 972.404 63.4282 972.9 63.9266C974.234 65.2681 971.528 69.1408 969.736 68.454C968.93 68.1446 957.664 61.7307 944.703 54.2007C931.741 46.6708 920.621 40.5099 919.992 40.5099C919.363 40.5099 907.819 46.9187 894.339 54.7516C880.86 62.5845 869.528 68.9932 869.158 68.9932C868.788 68.9932 867.988 67.8953 867.381 66.5533Z" fill="#03BA6D"/>
</g>
</g>
<g id="Property 1=B7">
<g id="layer1_7">
<path id="path8092-8" d="M1085 175.893C1129.68 175.893 1165.89 139.676 1165.89 95C1165.89 50.3241 1129.68 14.1071 1085 14.1071C1040.32 14.1071 1004.11 50.3241 1004.11 95C1004.11 139.676 1040.32 175.893 1085 175.893Z" fill="#F9F9F9"/>
<path id="path8384" d="M1040.79 151.892L1040.44 98.172V49.8088H1084.64H1128.85L1129.56 152.064L1040.79 151.892ZM1069.27 123.993H1049.09V143.781H1069.27V123.993ZM1095.21 111.993H1075.03V131.781H1095.21V111.993ZM1120.92 123.993H1100.98V143.781H1120.92V123.993ZM1069.27 97.2788H1049.09V118.056H1069.27V97.2788ZM1095.21 85.2788H1075.03V106.056H1095.21V85.2788ZM1120.92 97.4915H1100.98V117.843H1120.92V97.4915ZM1069.27 70.5649H1049.09V91.3424H1069.27V70.5649ZM1095.21 58.5649H1075.03V79.3424H1095.21V58.5649ZM1120.92 70.7777H1100.98V91.1296H1120.92V70.7777ZM1040.44 41.8936V37.936H1084.64H1128.85V41.8936V45.8512H1084.64H1040.44V41.8936Z" fill="#03BA6D"/>
</g>
</g>
<g id="Property 1=B8">
<g id="layer1_8">
<path id="path8092-2" d="M1250 175.893C1294.68 175.893 1330.89 139.676 1330.89 95C1330.89 50.3241 1294.68 14.1071 1250 14.1071C1205.32 14.1071 1169.11 50.3241 1169.11 95C1169.11 139.676 1205.32 175.893 1250 175.893Z" fill="#F9F9F9"/>
<path id="path8397" d="M1206.35 118.036L1206.58 89.6201L1227.97 75.3643C1239.74 67.5236 1249.81 61.116 1250.34 61.1252C1250.88 61.1342 1260.98 67.5561 1272.79 75.3955L1294.26 89.649L1294.5 118.051L1294.73 146.452H1277.28H1259.82V125.853V105.545H1250.35H1240.99V126.144V146.452H1223.6H1206.11L1206.35 118.036ZM1193.44 85.4965L1191.99 81.9974L1220.99 62.7727L1249.99 43.548L1264.52 53.2419L1279.05 62.9359L1279.31 54.8245L1279.57 46.7131H1285.77H1291.97L1292.22 59.2725L1292.47 71.8318L1300.24 76.9275L1308.01 82.0231L1306.74 84.8677C1306.03 86.4322 1305.04 88.0079 1304.53 88.3693C1304.02 88.7308 1291.85 81.2412 1277.49 71.7257C1263.12 62.2103 1250.93 54.2911 1250.38 54.1274C1249.84 53.9638 1237.77 61.5495 1223.57 70.9844C1209.36 80.4194 1197.1 88.3316 1196.31 88.5672C1195.38 88.8478 1194.39 87.7887 1193.44 85.4965Z" fill="#03BA6D"/>
</g>
</g>
<g id="Property 1=B9">
<g id="layer1_9">
<path id="path8092-2_2" d="M1415 175.893C1459.68 175.893 1495.89 139.676 1495.89 95C1495.89 50.3241 1459.68 14.1071 1415 14.1071C1370.32 14.1071 1334.11 50.3241 1334.11 95C1334.11 139.676 1370.32 175.893 1415 175.893Z" fill="#F9F9F9"/>
<path id="path21553" d="M1367.16 157.004V101.407V53.4607L1395.55 43.3794L1425.6 32.9963L1426.63 60.9025L1426.88 89.1105L1444.73 98.9601L1462.84 108.81V125.833V142.857V157.004H1367.16ZM1438.44 137.799V132.976H1433.97H1429.23V138.079V143.371H1433.69H1438.44V137.799ZM1455.07 138.029V133.436H1450.37H1445.43V143.371H1450.59H1455.07V138.029ZM1416.83 138.948V135.732H1395.87H1374.98V138.948V142.163H1395.87H1416.83V138.948ZM1416.83 124.708V121.033H1395.87H1374.98V124.708V128.383H1395.87H1416.83V124.708ZM1438.44 122.871V118.459H1433.92H1429.23V122.871V127.282H1433.92H1438.44V122.871ZM1455.07 122.871V118.459H1450.13H1445.43V122.871V127.282H1450.13H1455.07V122.871ZM1416.83 110.239V106.794H1395.87H1374.98V110.239V113.684H1395.87H1416.83V110.239ZM1416.83 95.7692V92.5538H1395.87H1374.98V95.7692V98.9846H1395.87H1416.83V95.7692ZM1416.83 81.5295V77.8547H1395.87H1374.98V80.9171V84.898H1396.49H1416.83V81.5295ZM1416.83 66.8304V63.1556H1395.87H1374.98V66.8304V70.5052H1395.87H1416.83V66.8304Z" fill="#03BA6D"/>
</g>
</g>
<rect x="0.5" y="0.5" width="1521" height="189" rx="4.5" stroke="#9747FF" stroke-dasharray="10 5"/>
</g>
</svg>
