<svg width="163" height="163" viewBox="0 0 163 163" fill="none" xmlns="http://www.w3.org/2000/svg">
<path d="M81.75 162.357C126.426 162.357 162.643 126.14 162.643 81.4643C162.643 36.7884 126.426 0.571411 81.75 0.571411C37.0741 0.571411 0.857178 36.7884 0.857178 81.4643C0.857178 126.14 37.0741 162.357 81.75 162.357Z" fill="#F9F9F9"/>
<path d="M66.5544 155.983C53.6321 153.212 42.2724 147.662 30.893 138.56C27.6755 135.987 25.043 133.212 25.043 132.394C25.043 130.072 35.1396 123.877 43.3407 121.166C47.429 119.815 54.8057 118.022 59.7335 117.181L68.693 115.652V109.894V104.137L63.395 98.473C59.6389 94.4578 57.347 90.957 55.52 86.4444C53.7009 81.9513 52.4759 80.0761 51.3547 80.0682C49.3426 80.0542 46.4762 75.397 45.7181 70.9102C45.2062 67.8803 44.8881 67.5245 43.0937 67.9748C41.8262 68.293 40.4906 67.9263 39.5723 67.008C37.91 65.3456 37.7376 64.0124 38.9394 62.1131C39.473 61.2697 39.3115 60.1812 38.4756 58.9879C36.7318 56.4982 36.8605 55.1896 39.0662 52.9839C40.7269 51.3232 40.79 50.9404 39.6227 49.6089C36.9984 46.616 36.9243 44.2202 39.3856 41.9392C40.6546 40.7631 41.693 39.1325 41.693 38.3157C41.693 37.499 42.8067 36.1279 44.168 35.2689C45.7786 34.2526 46.643 32.9307 46.643 31.4838C46.643 28.6219 49.7946 26.988 55.3489 26.9705C58.5095 26.9605 60.2195 26.3979 62.2288 24.7071C63.6995 23.4696 65.9708 22.4571 67.2761 22.4571C68.5815 22.4571 69.8826 21.8497 70.1675 21.1072C70.9973 18.9448 78.4565 19.3152 80.933 21.6418L82.9391 23.5264L83.9477 21.6418C84.7582 20.1273 85.8122 19.7572 89.3144 19.7572C92.0904 19.7572 94.0793 20.2473 94.793 21.1072C95.4092 21.8497 96.8217 22.4571 97.9318 22.4571C99.0419 22.4571 101.082 23.3473 102.465 24.4353C104.113 25.7316 106.984 26.6547 110.793 27.1133C117.516 27.9227 119.426 29.1069 118.697 32.0142C118.296 33.6111 118.721 34.3121 120.653 35.2378C122.01 35.8885 123.271 37.2278 123.454 38.214C123.637 39.2003 124.554 40.7317 125.49 41.6172C127.56 43.5747 127.676 46.5673 125.785 49.2665C124.485 51.1233 124.52 51.4575 126.248 53.6548C128.004 55.8872 128.03 56.1696 126.662 58.2565C125.553 59.9497 125.427 60.9649 126.132 62.5139C127.571 65.6723 125.127 68.6395 121.705 67.8879C119.268 67.3527 119.093 67.4982 119.093 70.0551C119.093 74.2496 116.459 78.9582 113.543 79.9745C112.141 80.4635 110.993 81.3908 110.992 82.0353C110.99 84.9278 105.325 94.7411 101.165 99.0568C96.6047 103.788 96.593 103.816 96.593 109.773V115.746L103.988 116.878C117.533 118.951 135.079 125.745 139.494 130.625C141.113 132.413 141.06 132.52 136.643 136.427C130.628 141.747 118.205 149.43 110.993 152.291C98.2437 157.349 79.9922 158.865 66.5544 155.983Z" fill="#03BA6D"/>
</svg>
