<svg width="163" height="163" viewBox="0 0 163 163" fill="none" xmlns="http://www.w3.org/2000/svg">
<path d="M81.75 162.357C126.426 162.357 162.643 126.14 162.643 81.4643C162.643 36.7884 126.426 0.571411 81.75 0.571411C37.0741 0.571411 0.857178 36.7884 0.857178 81.4643C0.857178 126.14 37.0741 162.357 81.75 162.357Z" fill="#F9F9F9"/>
<path d="M68.2818 156.125C59.9629 154.621 49.1491 150.594 42.3728 146.478C39.677 144.84 36.501 142.915 35.3149 142.2C33.0086 140.81 29.3529 137.652 24.6766 133.009L21.7817 130.136L24.2053 127.606C30.527 121.007 45.6178 114.634 59.9774 112.497C64.1816 111.872 67.6214 111.073 67.6214 110.721C67.6214 110.37 65.6391 109.819 63.2163 109.498C60.7935 109.176 58.3054 108.304 57.6873 107.559C56.6905 106.358 56.3776 106.373 54.9219 107.69C53.9452 108.574 52.4977 108.971 51.3473 108.67C50.284 108.392 48.6506 108.641 47.7177 109.224C46.3999 110.047 45.604 110.022 44.1509 109.115C42.6784 108.195 42 108.179 40.9627 109.04C40.002 109.838 39.3761 109.865 38.652 109.141C38.1058 108.594 36.4952 108.38 35.073 108.665L32.4871 109.182L35.6563 104.473C37.3993 101.882 39.4427 97.64 40.197 95.045C41.8635 89.3126 43.2942 77.4339 43.346 68.9001C43.4001 59.988 45.4956 49.2929 48.3182 43.5238C51.6631 36.6871 60.0777 27.9747 66.9182 24.2654C72.2773 21.3595 73.0395 21.2001 81.5714 21.2001C89.6962 21.2001 91.0965 21.4566 95.9714 23.8381C103.315 27.4258 111.576 35.8152 115.085 43.2501C118.677 50.8612 119.621 55.9591 120.669 73.4001C121.774 91.7782 123.643 98.9163 129.486 107.08L131.047 109.26L128.197 108.69C126.331 108.317 125.211 108.496 124.952 109.21C124.651 110.04 124.055 110.002 122.455 109.052C120.959 108.165 120.255 108.1 120.012 108.827C119.614 110.022 115.652 110.213 114.946 109.071C114.681 108.642 113.506 108.475 112.335 108.698C111.054 108.943 109.578 108.478 108.632 107.532C107.571 106.471 106.859 106.281 106.446 106.948C105.522 108.444 100.794 110.113 97.9314 109.953C93.5678 109.71 96.1369 111.381 101.126 112.031C109.733 113.153 120.161 116.209 127.621 119.795C136.106 123.874 141.753 128.638 140.861 130.962C139.828 133.654 125.173 144.715 117.653 148.478C101.262 156.682 85.1584 159.176 68.2818 156.125Z" fill="#03BA6D"/>
</svg>
