<svg width="163" height="163" viewBox="0 0 163 163" fill="none" xmlns="http://www.w3.org/2000/svg">
<path d="M81.75 162.357C126.426 162.357 162.643 126.14 162.643 81.4643C162.643 36.7884 126.426 0.571411 81.75 0.571411C37.0741 0.571411 0.857178 36.7884 0.857178 81.4643C0.857178 126.14 37.0741 162.357 81.75 162.357Z" fill="#F9F9F9"/>
<path d="M68.0715 156.839C52.1069 153.693 36.8609 145.632 25.4007 134.278C22.3872 131.292 19.9215 128.521 19.9215 128.119C19.9215 126.919 29.4402 120.973 36.8233 117.562C40.6172 115.809 47.8507 113.353 52.8976 112.104L62.0738 109.834L62.6604 106.707C63.0966 104.382 63.508 103.841 64.2643 104.597C65.9607 106.293 66.7215 105.755 66.7215 102.856C66.7215 100.915 65.9452 99.4448 64.0994 97.8918C60.8694 95.1738 55.8354 87.5854 53.7966 82.3609C52.9588 80.214 51.0141 77.398 49.4751 76.103C46.0874 73.2524 44.2215 69.0794 44.2215 64.3534C44.2215 60.3598 45.9473 58.3838 48.6783 59.2505C50.9263 59.964 50.9277 59.9226 48.8414 54.5726C44.9572 44.6122 45.9836 35.6605 51.6218 30.3227C55.7581 26.4069 57.8568 25.5143 62.9273 25.5143C66.4501 25.5143 68.1391 24.9436 71.2179 22.7134C80.7156 15.8333 85.8183 15.6692 97.5912 21.8652C107.47 27.0644 112.551 28.0306 119.805 26.0896L124.739 24.7695L121.605 27.3677L118.471 29.9659L122.072 30.0165L125.671 30.0671L122.732 32.7406L119.793 35.4143H122.507C125.988 35.4143 125.936 36.3472 122.306 39.0316L119.39 41.1874L121.631 41.7555C123.865 42.322 123.86 42.3351 120.009 46.069C117.884 48.1289 116.57 49.8143 117.089 49.8143C117.608 49.8143 116.815 51.495 115.327 53.5493C111.812 58.4015 111.806 59.8324 115.302 59.1331C117.641 58.6654 118.108 58.9244 118.958 61.1599C120.779 65.951 116.843 75.9246 112.598 77.2717C111.621 77.5818 110.821 78.3146 110.821 78.9C110.819 81.5189 105.13 91.6028 101.412 95.578C98.4063 98.7912 97.3215 100.68 97.3215 102.698C97.3215 105.003 97.6118 105.37 99.1215 104.975C100.614 104.585 100.921 104.947 100.921 107.096C100.921 109.611 101.156 109.745 108.796 111.575C113.128 112.613 119.84 114.733 123.713 116.287C131.34 119.348 143.221 126.576 143.221 128.155C143.221 129.513 134.776 137.79 128.816 142.272C121.987 147.408 110.864 152.811 102.271 155.165C94.0482 157.418 75.5923 158.321 68.0715 156.839Z" fill="#03BA6D"/>
</svg>
