<svg width="163" height="163" viewBox="0 0 163 163" fill="none" xmlns="http://www.w3.org/2000/svg">
<path d="M81.75 162.357C126.426 162.357 162.643 126.14 162.643 81.4643C162.643 36.7884 126.426 0.571411 81.75 0.571411C37.0741 0.571411 0.857178 36.7884 0.857178 81.4643C0.857178 126.14 37.0741 162.357 81.75 162.357Z" fill="#F9F9F9"/>
<path d="M64.6572 156.326C56.7193 154.636 49.9142 151.909 41.2015 146.923C33.6085 142.579 21.9072 133.158 21.9072 131.389C21.9072 128.478 34.2591 119.984 44.9905 115.517C48.7466 113.953 55.1133 111.968 59.1385 111.104C65.9387 109.646 66.4774 109.364 66.742 107.125L67.0268 104.714H53.1833H39.3398L40.5958 97.7393C41.5654 92.3544 41.6834 87.2763 41.1135 75.4643C39.8511 49.2981 40.0719 41.75 42.2059 38.1174C44.6143 34.0176 49.3036 30.9143 53.0903 30.9143C55.5058 30.9143 56.1072 30.556 56.1072 29.1169C56.1072 26.312 62.0513 20.4217 67.6627 17.6661C72.2025 15.4367 73.7373 15.1643 81.7572 15.1645C89.8419 15.1647 91.2924 15.4272 96.0191 17.746C102.297 20.8256 109.626 27.9126 113.003 34.1685C116.702 41.0224 118.064 47.6511 119.079 63.7449C120.147 80.6635 122.672 95.4388 126.016 104.333C126.268 105.003 123.338 105.177 116.516 104.895C111.091 104.672 103.987 104.774 100.73 105.123C95.6726 105.665 94.8072 106.014 94.8072 107.514C94.8072 108.48 95.3135 109.409 95.9322 109.579C96.551 109.748 100.044 110.552 103.695 111.365C116.21 114.154 130.098 121.038 138.283 128.51C140.532 130.563 140.674 131.007 139.581 132.568C137.726 135.216 127.502 143.155 120.907 147.067C104.837 156.601 82.9058 160.211 64.6572 156.326Z" fill="#03BA6D"/>
</svg>
