<svg width="163" height="163" viewBox="0 0 163 163" fill="none" xmlns="http://www.w3.org/2000/svg">
<path d="M81.75 162.357C126.426 162.357 162.643 126.14 162.643 81.4643C162.643 36.7884 126.426 0.571411 81.75 0.571411C37.0741 0.571411 0.857178 36.7884 0.857178 81.4643C0.857178 126.14 37.0741 162.357 81.75 162.357Z" fill="#F9F9F9"/>
<path d="M70.347 156.585C58.3392 154.445 47.1209 150.012 37.6247 143.656C26.9447 136.507 16.5043 125.617 17.5982 122.766C19.1006 118.851 44.3356 110.722 59.5967 109.237L67.1715 108.5L67.4491 103.614C67.7088 99.0433 67.541 98.5827 64.8491 96.4759C61.1021 93.5435 55.5318 84.8712 53.6036 78.9682C51.7342 73.245 51.7974 73.3176 49.9902 74.8175C48.7101 75.8798 48.2318 75.7119 46.3684 73.5456C42.1605 68.6535 43.785 56.5017 48.823 55.1842C49.768 54.9371 50.7206 53.8721 50.9398 52.8175C51.1591 51.7629 51.7642 48.7444 52.2845 46.1098C54.4585 35.1012 61.4489 25.4278 69.6757 22.0437C73.9005 20.3059 73.9148 20.2854 73.9181 15.9558C73.9209 12.3567 74.3728 11.1603 76.5523 8.98075C80.9712 4.56186 84.9718 5.65209 93.4537 13.5865C101.162 20.7972 106.795 23.5511 115.313 24.2727L122.072 24.8453L117.572 26.3647C115.097 27.2004 111.005 28.1458 108.479 28.4654L103.887 29.0467L107.243 35.531C109.232 39.3757 111.065 44.63 111.746 48.438C112.703 53.7927 113.203 54.9053 114.756 55.1302C117.652 55.5497 120.226 62.6156 119.426 67.9508C118.638 73.2066 116.085 76.1218 113.488 74.7318C112.142 74.0115 111.59 74.0625 111.273 74.9362C111.041 75.5763 110.226 77.9052 109.461 80.1115C107.567 85.5722 103.317 92.0023 99.0582 95.8501C95.8593 98.7401 95.5215 99.4662 95.5215 103.451C95.5215 108.193 96.2534 108.95 100.837 108.95C105.337 108.95 120.164 111.81 127.472 114.088C134.599 116.31 146.822 122.113 146.822 123.275C146.822 124.285 138.499 133.656 134.672 136.956C124.665 145.585 112.777 151.945 101.379 154.77C92.1634 157.054 77.7157 157.899 70.347 156.585Z" fill="#03BA6D"/>
</svg>
