<svg width="163" height="163" viewBox="0 0 163 163" fill="none" xmlns="http://www.w3.org/2000/svg">
<path d="M81.75 162.357C126.426 162.357 162.643 126.14 162.643 81.4643C162.643 36.7884 126.426 0.571411 81.75 0.571411C37.0741 0.571411 0.857178 36.7884 0.857178 81.4643C0.857178 126.14 37.0741 162.357 81.75 162.357Z" fill="#F9F9F9"/>
<path d="M65.9643 156.319C62.4993 155.577 56.4243 153.699 52.4643 152.146C42.0537 148.062 24.2681 135.61 24.1428 132.317C24.1271 131.906 26.4637 129.221 29.3351 126.35C35.5242 120.16 47.7681 113.851 58.3143 111.416C62.0268 110.559 65.5706 109.725 66.1893 109.564C66.8807 109.384 67.3143 107.699 67.3143 105.193V101.114H57.9483H48.5823L45.8887 94.5894C42.0387 85.2635 40.8355 78.6469 40.9376 67.3643C41.1434 44.6348 51.5552 25.0785 67.7701 16.9653C72.6282 14.5346 74.0142 14.2663 81.7143 14.2663C89.4145 14.2663 90.8005 14.5346 95.6586 16.9653C111.873 25.0785 122.285 44.6348 122.491 67.3643C122.593 78.6469 121.39 85.2635 117.54 94.5894L114.846 101.114H105.48H96.1143V105.193C96.1143 107.699 96.548 109.384 97.2393 109.564C97.8581 109.725 101.402 110.559 105.114 111.416C115.661 113.851 127.904 120.16 134.094 126.35C136.965 129.221 139.302 131.906 139.286 132.317C139.16 135.63 121.115 148.274 110.9 152.208C96.5379 157.738 79.7644 159.273 65.9643 156.319Z" fill="#03BA6D"/>
</svg>
