<svg width="163" height="163" viewBox="0 0 163 163" fill="none" xmlns="http://www.w3.org/2000/svg">
<path d="M81.75 162.357C126.426 162.357 162.643 126.14 162.643 81.4643C162.643 36.7884 126.426 0.571411 81.75 0.571411C37.0741 0.571411 0.857178 36.7884 0.857178 81.4643C0.857178 126.14 37.0741 162.357 81.75 162.357Z" fill="#F9F9F9"/>
<path d="M67.4143 156.388C49.5095 152.414 38.3332 145.913 21.7274 129.815C20.5364 128.66 20.786 128.163 23.8719 125.546C28.4851 121.633 40.0574 116.012 48.7697 113.452C56.1028 111.297 57.4934 109.83 56.3498 105.457C55.943 103.901 56.3354 103.671 59.3986 103.671C61.3323 103.671 62.9143 103.441 62.9143 103.159C62.9143 102.877 61.6828 100.856 60.1775 98.668C57.253 94.4173 53.0143 84.0706 53.0143 81.1823C53.0143 80.2208 51.798 78.0488 50.3114 76.3556C45.5274 70.907 43.7246 64.3763 45.8883 60.3333C46.6114 58.9822 47.4227 58.6542 49.0383 59.0597L51.2143 59.6058V44.873C51.2143 28.5267 51.9358 25.0754 55.7672 23.0941C59.5214 21.1528 105.907 21.1528 109.661 23.0941C113.488 25.0729 114.214 28.5313 114.214 44.7715C114.214 59.2992 114.228 59.3994 116.149 58.8971C117.423 58.5638 118.498 58.9583 119.299 60.0534C121.883 63.5877 120.049 70.7387 115.117 76.3556C113.631 78.0488 112.414 80.2148 112.414 81.169C112.414 84.0148 108.758 92.9875 105.53 98.064C103.871 100.672 102.514 103.001 102.514 103.239C102.514 103.477 104.096 103.671 106.03 103.671C109.093 103.671 109.486 103.901 109.079 105.457C107.935 109.831 109.325 111.297 116.659 113.447C124.435 115.727 135.866 121.147 140.74 124.864C143.739 127.151 144.056 127.127 143.077 128.821C142.719 129.443 140.086 133.172 137.452 135.679C122.117 150.277 103.106 157.782 81.9805 157.579C76.6916 157.528 70.1368 156.993 67.4143 156.388Z" fill="#03BA6D"/>
</svg>
