<svg width="163" height="163" viewBox="0 0 163 163" fill="none" xmlns="http://www.w3.org/2000/svg">
<path d="M81.75 162.357C126.426 162.357 162.643 126.14 162.643 81.4643C162.643 36.7884 126.426 0.571411 81.75 0.571411C37.0741 0.571411 0.857178 36.7884 0.857178 81.4643C0.857178 126.14 37.0741 162.357 81.75 162.357Z" fill="#F9F9F9"/>
<path d="M70.6786 156.971C54.2143 154.408 34.5778 144.285 24.4213 133.124L21.4017 129.806L23.9901 127.69C30.7705 122.148 44.0832 116.632 56.5831 114.184C60.3757 113.442 64.3899 112.641 65.5036 112.404C67.3522 112.01 67.5286 111.462 67.5286 106.112C67.5286 100.489 67.3948 100.135 64.2254 97.3547C60.3086 93.9189 55.8356 87.1159 53.6039 81.2003C52.7206 78.859 51.6532 77.1565 51.2319 77.4169C49.7028 78.3619 47.0125 75.9781 45.5868 72.4151C43.7759 67.8891 43.7488 65.1583 45.4739 61.0295C46.5937 58.3495 47.1638 57.8961 48.8743 58.3254C50.7631 58.7995 51.0092 58.421 51.9163 53.6476C53.1115 47.3585 56.8905 39.3935 60.9034 34.7053C62.533 32.8014 64.2579 29.5014 64.7363 27.372C65.8996 22.1943 68.1789 19.2685 72.947 16.8321C78.3029 14.0954 85.5543 14.0954 90.9102 16.8321C95.6783 19.2685 97.9576 22.1943 99.1209 27.372C99.5994 29.5014 101.324 32.8014 102.954 34.7053C106.967 39.3935 110.746 47.3585 111.941 53.6476C112.848 58.4211 113.094 58.7995 114.983 58.3254C116.693 57.8961 117.264 58.3495 118.383 61.0295C120.108 65.1583 120.081 67.8891 118.27 72.4151C116.826 76.0245 114.151 78.3595 112.575 77.3857C112.126 77.1081 111.478 77.7981 111.135 78.9191C110.792 80.04 109.468 83.1116 108.193 85.7448C105.516 91.2734 105.808 91.7328 112.59 92.6656C118.471 93.4745 126.326 91.8408 133.464 88.3242C139.051 85.5711 139.5 85.4785 138.957 87.1916C137.866 90.6318 134.254 95.5951 131.322 97.6832L128.415 99.7527L130.841 100.561C132.386 101.076 134.294 101.012 136.094 100.384C137.648 99.8425 139.087 99.5657 139.291 99.7695C139.958 100.437 136.88 105.569 135.039 106.858C133.062 108.243 133.514 109.307 136.079 109.307C136.986 109.307 137.729 109.67 137.729 110.114C137.729 111.253 131.947 116.193 128.568 117.94L125.732 119.407L131.505 122.493C134.681 124.191 138.482 126.561 139.953 127.761L142.627 129.943L139.953 132.798C131.489 141.835 113.866 152.059 101.279 155.234C92.8883 157.35 78.4025 158.173 70.6786 156.971Z" fill="#03BA6D"/>
</svg>
