<svg width="160" height="60" viewBox="0 0 160 60" fill="none" xmlns="http://www.w3.org/2000/svg">
<path d="M24.8424 42.3844L26.8924 37.5126H35.33L37.38 42.4113C37.4988 42.7612 37.7365 42.8689 38.1525 42.8689H40.2619C40.7075 42.8689 40.9155 42.7074 40.7372 42.3036L33.1018 24.889C32.9829 24.6737 32.8047 24.566 32.5373 24.566H29.8634C29.5663 24.566 29.4177 24.7006 29.3286 24.889L21.6634 42.3036C21.4852 42.7074 21.6634 42.8689 22.1388 42.8689H24.0997C24.4859 42.8689 24.7236 42.7074 24.8424 42.3844ZM27.8134 35.2517L31.1112 27.3922L34.3793 35.2517H27.8134Z" fill="black"/>
<path d="M52.3018 42.519V24.889C52.3018 24.7006 52.1532 24.566 51.9453 24.566H49.717C49.4793 24.566 49.3308 24.7006 49.3308 24.889V32.9638C48.2315 32.1294 46.8352 31.6988 45.4388 31.6988C42.3072 32.0745 40.4503 33.7713 40.4503 37.4049C40.4503 41.2539 42.4619 42.7287 45.4091 43.138C47.162 43.138 48.3504 42.5997 49.3308 41.7115V42.519C49.3308 42.7343 49.4793 42.8689 49.717 42.8689H51.9453C52.1532 42.8689 52.3018 42.7343 52.3018 42.519ZM46.2112 33.9328C47.3996 33.9328 48.3206 34.3365 49.3308 35.2248V39.4775C48.3206 40.4464 47.3402 40.8771 46.241 40.8771C44.2207 40.8771 42.9261 39.5313 42.9261 37.4049C42.9261 35.3055 44.191 33.9328 46.2112 33.9328Z" fill="black"/>
<path d="M65.1702 42.2229C65.4376 42.0883 65.4376 41.9537 65.3485 41.7384L64.8731 40.4734C64.7543 40.2042 64.6057 40.1504 64.2789 40.258C63.3876 40.608 61.9913 41.0117 60.5652 41.0117C58.1884 41.0117 56.7326 39.8543 56.4949 37.8625H64.6652C64.9325 37.8625 65.0514 37.7818 65.0811 37.5665C65.1405 37.2973 65.1405 36.8936 65.1405 36.6513C65.1405 33.6637 62.942 31.6988 59.6145 31.6988C55.8413 31.6988 53.5397 33.8487 53.5397 37.4016C53.5397 40.9814 55.9007 43.138 60.2978 43.138C62.021 43.138 63.8927 42.842 65.1702 42.2229ZM59.5551 33.7444C61.1594 33.7444 62.1695 34.5788 62.3478 36.436H56.5246C56.8217 34.7941 57.9804 33.7444 59.5551 33.7444Z" fill="black"/>
<path d="M66.5115 49.2479C66.5115 49.4633 66.6897 49.5979 66.8977 49.5979H69.1259C69.3636 49.5979 69.4825 49.4633 69.4825 49.2479V41.873C70.1698 42.3948 70.985 42.7587 71.841 42.958C72.8595 43.1955 73.9535 43.1302 74.9274 42.7705C77.009 42.0014 78.1714 40.2454 78.2979 37.405C78.2979 34.3974 77.0207 32.7631 74.6238 31.9946C73.8501 31.7467 73.0127 31.6593 72.2056 31.7958C71.0627 31.9893 70.197 32.4642 69.4825 33.1522V32.2909C69.4825 32.1025 69.3636 31.9679 69.1259 31.9679H66.8977C66.6897 31.9679 66.5115 32.1025 66.5115 32.2909V49.2479ZM72.6317 40.8771C71.4136 40.8771 70.4926 40.4734 69.4825 39.5851V35.3593C70.4926 34.3635 71.473 33.9328 72.602 33.9328C74.5926 33.9328 75.9769 35.3055 75.9769 37.405C75.9769 39.5313 74.6223 40.8771 72.6317 40.8771Z" fill="black"/>
<path d="M96.7428 42.519L101.199 32.5332C101.378 32.1025 101.199 31.968 100.724 31.968H98.9116C98.5254 31.968 98.2877 32.1025 98.1689 32.4255L95.1087 40.0427L92.0486 32.4255C91.9001 32.0756 91.6921 31.968 91.2762 31.968H89.3153C88.84 31.968 88.6617 32.1295 88.84 32.5332L93.2667 42.519C93.3856 42.7612 93.5638 42.8689 93.8312 42.8689H96.208C96.5051 42.8689 96.6537 42.7343 96.7428 42.519Z" fill="black"/>
<path d="M103.904 30.5212C104.914 30.5212 105.687 29.8214 105.687 28.9063C105.687 28.018 104.914 27.3182 103.904 27.3182C102.924 27.3182 102.151 28.018 102.151 28.9063C102.151 29.8214 102.924 30.5212 103.904 30.5212ZM102.448 42.519C102.448 42.7343 102.627 42.8689 102.835 42.8689H105.033C105.271 42.8689 105.419 42.7343 105.419 42.519V32.3179C105.419 32.1025 105.271 31.968 105.033 31.968H102.835C102.627 31.968 102.448 32.1025 102.448 32.3179V42.519Z" fill="black"/>
<path d="M111.585 39.3429V34.1481H114.853C115.091 34.1481 115.24 34.0136 115.24 33.8251V32.3179C115.24 32.1025 115.091 31.9679 114.853 31.9679H111.585V29.0879C111.585 28.8726 111.437 28.738 111.199 28.738H109.001C108.763 28.738 108.614 28.8726 108.614 29.0879V31.9679H107.069C106.832 31.9679 106.683 32.1025 106.683 32.3179V33.8251C106.683 34.0136 106.832 34.1481 107.069 34.1481H108.614V39.5313C108.614 42.0076 109.892 43.138 112.477 43.138C113.665 43.138 114.764 42.8958 115.566 42.4921C115.834 42.3575 115.864 42.2498 115.745 42.0076L115.21 40.6887C115.091 40.4195 114.943 40.3657 114.645 40.5272C114.17 40.7425 113.576 40.904 112.952 40.904C112.001 40.904 111.585 40.3657 111.585 39.3429Z" fill="black"/>
<path d="M118.11 47.6815C119.031 47.6815 119.536 47.4662 120.279 45.609L121.309 43.1776C121.161 42.8972 120.814 42.2176 120.695 41.9753L116.239 32.5278C116.06 32.1241 116.268 31.9626 116.714 31.9626H118.675C119.091 31.9626 119.328 32.0434 119.447 32.4202L122.626 39.7682L125.627 32.3394C125.716 32.0703 125.894 31.9626 126.281 31.9626H128.182C128.568 31.9626 128.687 32.0972 128.539 32.4202L122.567 46.6318C121.468 49.2695 120.22 49.8348 118.318 49.8348C117.457 49.8348 116.239 49.5656 115.437 49.2426C115.11 49.108 115.08 49.0004 115.169 48.7581L115.734 47.4123C115.852 47.1432 116.001 47.1163 116.328 47.2239C116.773 47.4123 117.546 47.6815 118.11 47.6815Z" fill="black"/>
<path fill-rule="evenodd" clip-rule="evenodd" d="M84.4875 37.4016V42.5885C84.4875 42.7433 84.6261 42.8689 84.797 42.8689H85.8801H86.9633C87.1341 42.8689 87.2728 42.7433 87.2728 42.5885V37.4016V32.2147C87.2728 32.0599 87.1341 31.9343 86.9633 31.9343H85.8801H84.797C84.6261 31.9343 84.4875 32.0599 84.4875 32.2147V37.4016Z" fill="black"/>
<path d="M54.0058 8.6916L55.7079 17.6636L61.7427 24.2523L69.1702 25.2337L78.6093 26.4953L83.0967 24.2523L85.4178 18.7851L84.3346 17.6636L77.06 10.3738L55.089 6.02805L54.0058 8.6916Z" fill="#03BA6D"/>
<path d="M85.7272 30.7009L81.8588 28.8785L86.0367 23.1309L88.9768 21.3084L100.273 19.9066L104.296 20.8879L100.737 28.0374L93.4642 29.2991L85.7272 30.7009Z" fill="#00FF85"/>
<path d="M82.4678 42.8972H80.3114C80.1405 42.8972 80.0019 42.7758 80.0007 42.6207C79.9679 38.4777 79.2455 27.8814 80.0019 27.1963C54.3153 33.3645 49.5183 15.9813 51.8394 4.2056C58.4839 4.86924 91.4721 10.2286 84.4946 20.7477C79.4532 26.3894 64.7462 19.3024 61.6195 11.9035C61.5072 11.6374 61.8557 11.4511 62.0825 11.6484C67.7101 16.5418 74.3084 20.1546 80.3525 19.9539C80.8034 19.939 81.1649 19.6069 81.1333 19.1991C80.6273 12.6281 65.4171 8.94324 55.5532 8.13083C54.3911 19.9752 61.0021 27.6189 78.6204 24.695C80.9975 24.3004 83.1477 23.2084 85.2813 22.1798C89.5434 20.1248 96.8573 17.9729 105.998 18.9189C102.49 32.6035 93.4264 30.7581 84.8697 30.702C84.675 30.7009 84.5292 30.5377 84.5778 30.367C85.8711 25.8399 92.9387 24.5266 96.8263 23.8823C97.1727 23.8249 97.2949 24.1675 96.9721 24.2947C93.9949 25.4691 88.6137 27.5019 88.9768 28.5981C96.8684 29.7196 100.909 26.7336 103.218 21.0552C81.3992 21.3066 82.3087 29.3218 82.777 42.6053C82.7826 42.7634 82.6427 42.8972 82.4678 42.8972Z" fill="black"/>
</svg>
