<svg width="32" height="32" viewBox="0 0 32 32" fill="none" xmlns="http://www.w3.org/2000/svg">
<g clip-path="url(#clip0_24_182)">
<path d="M11.9998 1.33333V3.99999H19.9998V1.33333H22.6665V3.99999H27.9998C28.3535 3.99999 28.6926 4.14047 28.9426 4.39052C29.1927 4.64057 29.3332 4.97971 29.3332 5.33333V26.6667C29.3332 27.0203 29.1927 27.3594 28.9426 27.6095C28.6926 27.8595 28.3535 28 27.9998 28H3.99984C3.64622 28 3.30708 27.8595 3.05703 27.6095C2.80698 27.3594 2.6665 27.0203 2.6665 26.6667V5.33333C2.6665 4.97971 2.80698 4.64057 3.05703 4.39052C3.30708 4.14047 3.64622 3.99999 3.99984 3.99999H9.33317V1.33333H11.9998ZM26.6665 10.6667H5.33317V25.3333H26.6665V10.6667ZM20.0478 13.5147L21.9332 15.4L15.3332 22L10.6185 17.2853L12.5065 15.4L15.3345 18.2293L20.0492 13.5147H20.0478Z" fill="#03BA6D"/>
</g>
<defs>
<clipPath id="clip0_24_182">
<rect width="32" height="32" fill="white"/>
</clipPath>
</defs>
</svg>
