<svg width="101" height="47" viewBox="0 0 101 47" fill="none" xmlns="http://www.w3.org/2000/svg">
<g clip-path="url(#clip0_90_181)">
<path d="M3.06466 38.5537L4.99949 33.4481H12.9642L14.899 38.5817C15.0113 38.9478 15.2352 39.0608 15.6279 39.0608H17.6185C18.0398 39.0608 18.2365 38.8918 18.0677 38.4688L10.8605 20.2206C10.7482 19.9955 10.5801 19.8825 10.3276 19.8825H7.80412C7.52373 19.8825 7.38354 20.0235 7.29912 20.2206L0.0640527 38.4688C-0.104029 38.8918 0.0640526 39.0608 0.512523 39.0608H2.36369C2.72849 39.0608 2.95235 38.8918 3.06466 38.5529V38.5537ZM5.86854 31.0791L8.98145 22.8435L12.0665 31.0791H5.86929H5.86854ZM28.9832 38.6947V20.2206C28.9849 20.1757 28.9774 20.1309 28.961 20.0891C28.9447 20.0472 28.9199 20.0092 28.8883 19.9775C28.8566 19.9457 28.8188 19.9209 28.7772 19.9046C28.7355 19.8882 28.691 19.8807 28.6463 19.8825H26.5434C26.3188 19.8825 26.1786 20.0235 26.1786 20.2206V28.6821C25.1414 27.8073 23.8232 27.3563 22.5056 27.3563C19.5495 27.7505 17.7963 29.5281 17.7963 33.3359C17.7963 37.3688 19.6957 38.9137 22.477 39.3428C24.1314 39.3428 25.2538 38.7788 26.1786 37.8479V38.6947C26.1786 38.9198 26.3188 39.0608 26.5434 39.0608H28.6463C28.8423 39.0608 28.9832 38.9198 28.9832 38.6947ZM23.2345 29.6972C24.3561 29.6972 25.2251 30.1202 26.1786 31.0511V35.507C25.2251 36.5228 24.3003 36.9738 23.2624 36.9738C21.3555 36.9738 20.1337 35.5638 20.1337 33.3351C20.1337 31.136 21.3276 29.6972 23.2345 29.6972ZM41.1296 38.3838C41.3821 38.2428 41.3821 38.1019 41.2977 37.8759L40.8492 36.5508C40.7361 36.2689 40.5967 36.212 40.2884 36.3249C39.4473 36.6918 38.129 37.1148 36.7828 37.1148C34.5397 37.1148 33.1649 35.9019 32.9411 33.815H40.6525C40.905 33.815 41.0173 33.7308 41.0452 33.5042C41.1017 33.2229 41.1017 32.7992 41.1017 32.546C41.1017 29.4152 39.0259 27.3563 35.8859 27.3563C32.3238 27.3563 30.1515 29.6093 30.1515 33.3321C30.1515 37.083 32.3803 39.3436 36.5303 39.3436C38.1569 39.3436 39.9236 39.0328 41.1296 38.3838ZM35.8294 29.4993C37.3444 29.4993 38.2971 30.3741 38.4652 32.3201H32.9689C33.2493 30.5993 34.343 29.4993 35.8294 29.4993ZM42.3951 45.7454C42.3951 45.9706 42.5639 46.1116 42.7599 46.1116H44.8628C45.0874 46.1116 45.1997 45.9706 45.1997 45.7454V38.0169C45.2404 38.0511 45.2827 38.0852 45.3249 38.1185C47.3373 39.7127 50.6161 39.5786 52.214 37.5651C53.0024 36.5698 53.4471 35.1674 53.5202 33.3351C53.5202 31.0435 52.8833 29.513 51.666 28.5389C50.102 27.2865 47.7391 27.0288 46.0703 28.1356C45.753 28.3456 45.4651 28.595 45.1997 28.8785V27.9764C45.1997 27.7793 45.0874 27.6375 44.8628 27.6375H42.7599C42.5639 27.6375 42.3951 27.7785 42.3951 27.9764V45.7454ZM48.1725 36.9746C47.0223 36.9746 46.1525 36.5508 45.1997 35.6199V31.1921C46.1532 30.1482 47.0788 29.6972 48.1438 29.6972C50.0229 29.6972 51.3298 31.136 51.3298 33.3359C51.3298 35.5638 50.0515 36.9746 48.1725 36.9746ZM70.9306 38.6947L75.1364 28.2311C75.3053 27.7793 75.1365 27.6383 74.688 27.6383H72.977C72.613 27.6383 72.3891 27.7793 72.276 28.1181L69.3885 36.099L66.5002 28.1166C66.36 27.7505 66.164 27.6375 65.7713 27.6375H63.9202C63.4717 27.6375 63.3036 27.8066 63.4717 28.2296L67.6504 38.6939C67.7619 38.9471 67.9308 39.06 68.1833 39.06H70.4264C70.7068 39.06 70.847 38.919 70.9314 38.6939L70.9306 38.6947ZM77.6901 26.1229C78.6436 26.1229 79.3724 25.3891 79.3724 24.4302C79.3724 23.4993 78.6436 22.7662 77.6901 22.7662C77.4722 22.7642 77.2562 22.8058 77.0545 22.8887C76.8528 22.9716 76.6696 23.0941 76.5155 23.249C76.3614 23.4039 76.2395 23.5881 76.157 23.7909C76.0745 23.9937 76.033 24.211 76.0349 24.4302C76.0349 25.3891 76.7645 26.1229 77.6901 26.1229ZM76.3153 38.6947C76.3139 38.7432 76.3224 38.7915 76.3403 38.8365C76.3582 38.8816 76.385 38.9226 76.4192 38.9569C76.4533 38.9912 76.4941 39.0181 76.539 39.0359C76.5838 39.0538 76.6319 39.0623 76.6801 39.0608H78.7551C78.9797 39.0608 79.1199 38.9198 79.1199 38.6947V28.0052C79.1199 27.7793 78.9797 27.6383 78.7551 27.6383H76.6801C76.6318 27.6368 76.5837 27.6453 76.5388 27.6632C76.4939 27.6811 76.453 27.7081 76.4189 27.7425C76.3847 27.7768 76.3579 27.8179 76.3401 27.8631C76.3223 27.9082 76.3138 27.9566 76.3153 28.0052V38.6947ZM84.9402 35.366V29.9231H88.0245C88.2491 29.9231 88.3893 29.7821 88.3893 29.5842V28.0052C88.3893 27.7793 88.2491 27.6383 88.0245 27.6383H84.9402V24.6212C84.9402 24.3953 84.8 24.2543 84.5754 24.2543H82.5004C82.2758 24.2543 82.1356 24.3953 82.1356 24.6204V27.6383H80.6771C80.4533 27.6383 80.3131 27.7793 80.3131 28.0052V29.5842C80.3131 29.7813 80.4533 29.9231 80.6771 29.9231H82.1356V35.5631C82.1356 38.1587 83.3416 39.3428 85.7814 39.3428C86.9029 39.3428 87.9408 39.0889 88.6976 38.6658C88.9501 38.5249 88.978 38.4127 88.8657 38.1579L88.3614 36.7768C88.2491 36.4948 88.1089 36.4379 87.8285 36.6069C87.3793 36.8328 86.8185 37.0019 86.2299 37.0019C85.3322 37.0019 84.9402 36.4379 84.9402 35.366Z" fill="white"/>
<path d="M91.099 44.1042C91.968 44.1042 92.4452 43.8783 93.1461 41.9324L94.1177 39.3845C93.9208 38.9664 93.7279 38.5464 93.5388 38.1246L89.3322 28.225C89.1642 27.802 89.3601 27.633 89.7807 27.633H91.6319C92.0246 27.633 92.2484 27.7171 92.3607 28.1121L95.3613 35.8118L98.1939 28.0272C98.2775 27.7452 98.4464 27.633 98.8104 27.633H100.605C100.97 27.633 101.082 27.774 100.942 28.1121L95.3056 43.0035C94.2677 45.7674 93.0896 46.3602 91.295 46.3602C90.4817 46.3602 89.3322 46.0782 88.5747 45.7394C88.2665 45.5984 88.2386 45.4854 88.3222 45.2315L88.8551 43.8215C88.9674 43.5395 89.1076 43.5114 89.4159 43.6244C89.8372 43.8215 90.5661 44.1042 91.099 44.1042Z" fill="white"/>
<path fill-rule="evenodd" clip-rule="evenodd" d="M59.3624 33.3321V38.3027C59.3624 38.5038 59.4418 38.6966 59.5832 38.8388C59.7245 38.9809 59.9163 39.0608 60.1162 39.0608H61.2377C61.4376 39.0608 61.6293 38.9809 61.7707 38.8388C61.912 38.6966 61.9914 38.5038 61.9914 38.3027V28.3615C61.9914 28.1604 61.912 27.9676 61.7707 27.8254C61.6293 27.6833 61.4376 27.6034 61.2377 27.6034H60.1162C59.9163 27.6034 59.7245 27.6833 59.5832 27.8254C59.4418 27.9676 59.3624 28.1604 59.3624 28.3615V33.3321Z" fill="white"/>
<path d="M29.5674 1.7284L30.4553 12.4876L32.1964 18.2315L36.2861 22.3447L44.4649 24.5484L49.4312 25.283L51.4761 24.5477L54.2506 22.933L51.7678 14.5594L50.3071 9.27114L41.3979 3.10125L31.4879 0.604187L29.5674 1.7284Z" fill="#EEEEEE" fill-opacity="0.286275"/>
<path d="M72.7999 21.1697L76.451 16.4697L72.362 15.8815L63.5998 16.469L58.3403 17.791L56.5879 19.8477L60.5314 23.0793L65.3508 24.9896L70.0247 24.2543L72.7999 21.1697Z" fill="#EEEEEE" fill-opacity="0.192157"/>
<path d="M56.4032 39.1389L55.0186 38.9191C54.8169 38.8856 54.6366 38.773 54.5172 38.6061C54.3978 38.4391 54.3491 38.2313 54.3817 38.0283C55.2199 32.5945 54.6689 24.8016 54.2506 23.9609C38.1848 31.5992 25.0397 18.5256 28.8378 0.163757C40.7837 0.729273 49.7538 5.239 54.8393 15.9171C55.1807 16.6342 54.8762 17.4939 54.1534 17.8168C45.6211 21.6276 38.1516 18.5461 35.993 12.6392C35.6839 11.794 37.3504 11.5059 37.9444 12.1806C41.4748 16.1908 48.2328 17.1618 51.1844 15.1469C47.5333 9.2719 42.1291 4.57039 31.4668 3.54245C30.4462 16.9102 37.7476 25.7234 50.454 22.0514C57.6755 19.1457 59.6126 9.34544 77.3102 16.7987C77.6509 16.9428 77.8492 17.3233 77.7376 17.6766C75.3257 25.2936 64.4245 28.8095 59.4129 24.2907C59.308 24.196 59.2355 24.0704 59.2057 23.9318C59.1759 23.7933 59.1904 23.6488 59.2471 23.519C60.5284 20.5731 63.4838 18.9653 66.3419 18.6863C67.2087 18.6014 67.0203 19.477 66.1739 19.6847C63.8147 20.2654 61.8361 21.6177 61.408 23.0793C65.644 25.7234 73.3848 21.3168 74.1152 19.1131C69.0034 17.0565 63.4529 15.441 56.8804 21.7572C57.9853 26.2018 58.1768 34.8482 57.206 38.6333C57.1155 38.9888 56.7635 39.1965 56.4032 39.1389Z" fill="white"/>
</g>
<defs>
<clipPath id="clip0_90_181">
<rect width="101" height="47" fill="white"/>
</clipPath>
</defs>
</svg>
