<svg width="64" height="64" viewBox="0 0 64 64" fill="none" xmlns="http://www.w3.org/2000/svg">
<g clip-path="url(#clip0_49_386)">
<path d="M18.3284 59.0596C10.7447 56.4984 3.39951 54.8176 3.24113 54.6592C3.00597 54.424 2.92873 53.612 2.30243 44.7906C1.92708 39.5039 1.62427 35.1686 1.62953 35.1568C1.63481 35.1449 10.3471 36.9714 17.8612 39.2156L31.5234 43.296L45.5568 39.1244C53.2751 36.83 62.1752 34.9779 62.2059 35.0086C62.2365 35.0392 61.9655 39.4475 61.6036 44.8046C61.2417 50.1618 60.9456 54.6243 60.9456 54.7214C60.9456 54.8184 60.812 55.047 60.6486 55.2294C60.3943 55.5132 55.8744 56.1121 44.456 59.3948C37.1214 61.5034 31.0031 63.223 30.8599 63.2162C30.7166 63.2093 25.0774 61.3389 18.3284 59.0596ZM17.693 37.099C10.2315 34.8654 1.54487 33.0146 1.51825 32.9861C1.4667 32.9309 1.04756 27.1077 1.00463 25.8503C0.983074 25.2202 1.02949 25.0487 1.29911 24.7613L1.61912 24.4202H18.9956H33.8122L34.0538 23.7272C34.4285 22.6525 34.39 19.8695 33.9864 18.8517L33.6888 18.1012L32.8002 18.5527C30.2168 19.8651 27.1329 19.8632 24.3558 18.5475C22.1846 17.5188 19.5912 15.2701 18.1497 13.1662C16.8372 11.2505 15.614 8.20536 15.46 6.47013L15.4192 6.01018L16.6911 5.65718C18.9246 5.0373 20.3916 4.83483 22.6133 4.83983C24.8696 4.84491 26.0161 5.03129 27.8035 5.68361C30.2848 6.58919 32.6413 8.61578 33.8398 10.8749C34.0175 11.21 34.1927 11.4839 34.2292 11.4836C34.2656 11.4834 34.307 10.8151 34.3212 9.99862C34.4327 3.57056 38.1134 0 44.6284 0H46.0758L46.1571 0.508534C46.2631 1.17188 46.0614 3.27062 45.78 4.4307C45.6579 4.93414 45.2997 5.88524 44.9839 6.54426C43.5805 9.47317 41.1571 10.6531 38.135 9.87872C37.4655 9.70716 37.0877 9.90388 36.649 10.6524C35.7328 12.2157 35.6226 14.3281 36.2749 17.8202C36.5494 19.2896 36.5543 21.9454 36.2848 23.2322C36.1708 23.7767 36.0775 24.2668 36.0774 24.3212C36.0773 24.3757 41.3591 24.4202 47.8147 24.4202C54.2702 24.4202 62.2081 24.4571 62.3256 24.5022C62.4432 24.5473 62.6258 24.7515 62.7315 24.9559C62.9011 25.2838 62.8928 25.7651 62.6606 29.0539C62.5159 31.1035 62.3827 32.7917 62.3645 32.8055C62.244 32.8976 31.6151 41.1825 31.4573 41.1726C31.3484 41.1658 25.1544 39.3327 17.6929 37.0991L17.693 37.099Z" fill="#D0D0D0"/>
</g>
<defs>
<clipPath id="clip0_49_386">
<rect width="64" height="64" fill="white"/>
</clipPath>
</defs>
</svg>
