<svg width="66" height="64" viewBox="0 0 66 64" fill="none" xmlns="http://www.w3.org/2000/svg">
<path d="M46.4057 60.0426C52.4101 53.9484 52.9956 44.4106 47.7832 37.6042C45.8772 35.1152 42.899 32.859 40.1283 31.8049L38.9286 31.3485L39.7667 30.706C42.4614 28.6405 43.9223 25.7978 43.9323 22.6006C43.9416 19.5888 42.9343 17.1994 40.7637 15.0849C38.7461 13.1194 36.166 12.0817 33.3092 12.0868C26.1813 12.0995 21.1361 18.4067 22.9011 25.0985C23.4956 27.3527 25.0373 29.5964 26.8103 30.7879L27.5468 31.2828L25.7841 32.0898C22.7245 33.4906 20.6571 35.0808 18.8164 37.4496C13.4787 44.3186 14.01 53.8017 20.0854 60.0995C20.6789 60.7147 21.3906 60.8787 21.036 61.2181C17.3434 60.9526 12.814 50.6267 12.814 50.6267C12.814 50.6267 12.3516 50.2281 11.6599 49.5111C8.16356 45.8867 5.58296 41.0174 4.37811 35.771C4.03888 34.2938 3.98589 33.5452 3.9828 30.1862C3.97967 26.787 4.02929 26.0833 4.38395 24.497C6.95753 12.9861 15.6327 4.5728 27.5241 2.05538C29.1657 1.70784 29.8732 1.66063 33.391 1.66388C36.845 1.66706 37.6376 1.71957 39.1954 2.0484C42.7322 2.79499 46.5391 4.30547 49.3029 6.05883C60.7907 13.3466 65.6633 27.0784 61.1868 39.5495C59.9046 43.1216 57.8799 46.4128 55.1205 49.4107C54.2467 50.3601 53.7537 50.6175 53.7537 50.6175C53.7537 50.6175 50.0024 60.1476 45.2038 61.3905C44.7773 60.9641 45.6754 60.784 46.4057 60.0426Z" fill="#D0D0D0"/>
</svg>
