<svg width="48" height="49" viewBox="0 0 48 49" fill="none" xmlns="http://www.w3.org/2000/svg">
<path d="M23.4844 49.6276C37.7806 49.6276 49.3701 38.0382 49.3701 23.7419C49.3701 9.44564 37.7806 -2.1438 23.4844 -2.1438C9.18806 -2.1438 -2.40137 9.44564 -2.40137 23.7419C-2.40137 38.0382 9.18806 49.6276 23.4844 49.6276Z" fill="#F9F9F9"/>
<path d="M10.3792 43.6186L10.4222 29.2406L10.3509 15.8912L15.5575 12.9054C18.4211 11.2632 21.4063 9.54804 22.1912 9.09398L23.6184 8.26842L30.1809 12.086L36.7434 15.9036L36.8248 29.4561L36.9062 43.6485L10.3792 43.6186ZM22.5247 35.9607V33.9406H19.2434H15.9622V35.9607V39.2608H19.2434H22.5247V35.9607ZM30.9621 35.9607V33.9406H27.6809H24.3997V35.9607V39.2608H27.6809H30.9621V35.9607ZM22.5247 29.3946V26.0945H19.2434H15.9622V29.3946V31.4148H19.2434H22.5247V29.3946ZM30.9621 29.3946V26.0945H27.6809H24.3997V29.3946V31.4148H27.6809H30.9621V29.3946ZM22.5247 21.5486V18.2484H19.2434H15.9622V21.5486V23.5687H19.2434H22.5247V21.5486ZM30.9621 21.5486V18.2484H27.6809H24.3997V21.5486V23.5687H27.6809H30.9621V21.5486ZM6.64634 14.639C6.24841 13.7606 5.21162 14.4587 17.7609 7.15545L23.4658 3.83539L31.795 8.67191C36.3761 11.332 40.254 13.639 40.4126 13.7985C40.8394 14.2277 39.9734 15.467 39.4002 15.2472C39.1421 15.1482 35.5372 13.0958 31.3894 10.6862C27.2416 8.27659 23.6832 6.30511 23.4819 6.30511C23.2806 6.30511 19.5867 8.35591 15.2732 10.8624C10.9597 13.369 7.33361 15.4198 7.21524 15.4198C7.09688 15.4198 6.84088 15.0684 6.64634 14.639Z" fill="#03BA6D"/>
</svg>
