<svg width="48" height="48" viewBox="0 0 48 48" fill="none" xmlns="http://www.w3.org/2000/svg">
<path d="M0.73877 46.9478C0.73877 46.6267 1.46223 44.626 1.9424 43.6194C3.36396 40.6391 5.26783 38.7497 8.06349 37.545L8.93237 37.1705L9.54374 35.9702C10.211 34.66 10.8244 33.7456 11.6195 32.8756C13.4929 30.8258 16.1257 29.9687 17.8756 30.8389C19.1843 31.4897 20.4086 32.7752 21.0962 34.2205C21.3201 34.6913 21.5559 35.1859 21.62 35.3196C21.7079 35.5027 21.9446 35.6325 22.5789 35.8452C24.4105 36.4596 25.8862 37.3959 27.175 38.7612C28.3487 40.0046 29.2467 41.5424 29.8412 43.3269C30.1844 44.3569 30.5488 46.1003 30.5488 46.712V47.1113H15.6438C1.95866 47.1113 0.73877 47.0979 0.73877 46.9478ZM5.52686 44.9219C6.08916 43.8371 6.50831 43.2773 7.37712 42.4504L8.09056 41.7715V40.8721C8.09056 40.3775 8.04658 39.9456 7.99281 39.9124C7.70682 39.7357 6.0173 41.085 5.11768 42.2087C4.74753 42.671 4.21648 43.5156 3.90763 44.1332C3.38645 45.1754 3.26648 45.5771 3.4281 45.7387C3.46708 45.7777 3.85847 45.7966 4.29784 45.7807L5.0967 45.7517L5.52686 44.9219ZM32.6168 46.6329C31.8539 40.4697 28.9732 36.3939 24.3048 34.8724C23.2761 34.5372 23.2357 34.509 23.1529 34.0676C23.1171 33.8767 22.8852 33.3159 22.6376 32.8213C22.1603 31.8677 21.1682 30.69 20.3852 30.1474C20.1592 29.9907 19.9743 29.8096 19.9743 29.7448C19.9743 29.5544 21.04 28.3068 22.136 27.214C23.157 26.1959 24.2585 25.3424 25.1188 24.9027C25.5079 24.7038 25.6232 24.5714 25.8528 24.0597C26.3285 22.9998 26.5503 21.9146 26.4916 20.9349C26.4327 19.9514 26.2733 19.3303 26.0587 19.2479C25.9778 19.2169 25.6205 19.3305 25.2648 19.5005C24.294 19.9642 23.0041 20.396 21.8564 20.6414C21.0543 20.813 20.5005 20.8601 19.3197 20.8574C17.9829 20.8544 17.7073 20.8234 16.9251 20.588C14.4785 19.8516 11.798 17.8808 9.70667 15.2808C8.29313 13.5235 7.71227 12.3026 8.0053 11.7046C8.21475 11.2773 8.55422 11.0822 9.91283 10.6087C12.4054 9.73987 14.6733 9.38094 17.0537 9.47854C19.7667 9.58978 21.9502 10.3214 23.9245 11.7805C24.2969 12.0558 24.6481 12.2522 24.705 12.2171C24.7673 12.1786 24.8083 11.6192 24.8083 10.8085C24.8083 8.84282 25.1219 7.45149 25.8394 6.23305C26.2517 5.53301 27.6873 4.06779 28.4842 3.53361C30.3327 2.29467 32.8706 1.48991 34.9293 1.48991C35.659 1.48991 35.8052 1.51925 35.973 1.69937C36.2523 1.9992 36.2877 2.23598 36.3555 4.25942C36.4464 6.96703 36.1661 8.66456 35.3413 10.4027C34.5778 12.0115 33.56 13.0253 31.7666 13.9631C30.7792 14.4795 28.7819 15.1991 27.9613 15.3341C27.7291 15.3723 27.4957 15.4567 27.4428 15.5216C27.3779 15.6011 27.4893 15.9356 27.7841 16.546C28.5382 18.1078 28.766 19.0441 28.7768 20.6247C28.7847 21.7876 28.7517 22.0936 28.5491 22.7396C28.4188 23.155 28.2451 23.6248 28.163 23.7835C27.9739 24.1495 28.0664 24.2485 28.7612 24.4242C31.34 25.076 34.0534 27.6422 35.8182 31.0985C36.1717 31.7909 36.5637 32.6183 36.6892 32.9372C36.915 33.5108 36.9267 33.5214 37.7632 33.9134C39.7613 34.8498 41.7748 36.2844 43.2545 37.826C45.5785 40.2473 46.928 43.1581 47.2207 46.3812L47.287 47.1113H39.9815H32.676L32.6168 46.6329Z" fill="#F1AA3F"/>
</svg>
