<svg width="28" height="28" viewBox="0 0 28 28" fill="none" xmlns="http://www.w3.org/2000/svg">
<path d="M7 13.2632C6.17267 13.2632 5.35344 13.0916 4.58909 12.7584C3.82474 12.4251 3.13024 11.9366 2.54523 11.3208C1.96022 10.705 1.49616 9.97396 1.17956 9.16938C0.862954 8.3648 0.7 7.50245 0.7 6.63158C0.7 5.76071 0.862954 4.89836 1.17956 4.09378C1.49616 3.2892 1.96022 2.55814 2.54523 1.94235C3.13024 1.32655 3.82474 0.838068 4.58909 0.5048C5.35344 0.171532 6.17267 -1.2977e-08 7 0C8.67086 2.62082e-08 10.2733 0.698683 11.4548 1.94235C12.6363 3.18601 13.3 4.87278 13.3 6.63158C13.3 8.39038 12.6363 10.0772 11.4548 11.3208C10.2733 12.5645 8.67086 13.2632 7 13.2632ZM21.7 19.1579C20.2148 19.1579 18.7904 18.5368 17.7402 17.4314C16.69 16.3259 16.1 14.8265 16.1 13.2632C16.1 11.6998 16.69 10.2004 17.7402 9.09495C18.7904 7.98947 20.2148 7.36842 21.7 7.36842C23.1852 7.36842 24.6096 7.98947 25.6598 9.09495C26.71 10.2004 27.3 11.6998 27.3 13.2632C27.3 14.8265 26.71 16.3259 25.6598 17.4314C24.6096 18.5368 23.1852 19.1579 21.7 19.1579ZM21.7 20.6316C23.3709 20.6316 24.9733 21.3303 26.1548 22.5739C27.3363 23.8176 28 25.5044 28 27.2632V28H15.4V27.2632C15.4 25.5044 16.0637 23.8176 17.2452 22.5739C18.4267 21.3303 20.0291 20.6316 21.7 20.6316ZM7 14.7368C7.91925 14.7368 8.82951 14.9274 9.67878 15.2977C10.5281 15.668 11.2997 16.2108 11.9497 16.895C12.5998 17.5792 13.1154 18.3915 13.4672 19.2855C13.8189 20.1795 14 21.1376 14 22.1053V28H0V22.1053C0 20.151 0.737498 18.2768 2.05025 16.895C3.36301 15.5132 5.14348 14.7368 7 14.7368Z" fill="#454545"/>
</svg>
