<svg width="32" height="32" viewBox="0 0 32 32" fill="none" xmlns="http://www.w3.org/2000/svg">
<path d="M0.781034 31.471C0.639939 31.3518 0.51379 31.1672 0.472382 31.0193C0.425288 30.8511 0.40833 27.6235 0.420606 21.1647L0.43886 11.5603L0.623517 11.2018C0.725078 11.0046 0.923318 10.7199 1.06405 10.5692C1.20478 10.4185 4.32401 8.22091 7.99568 5.68572C11.6673 3.15054 14.9002 0.912219 15.1797 0.711684C15.6527 0.372464 15.714 0.347076 16.0608 0.347076C16.4285 0.347076 16.4478 0.357011 17.4841 1.08256C18.0618 1.48708 21.3252 3.74705 24.7359 6.10472C30.2926 9.94576 30.97 10.433 31.2525 10.7919C31.4634 11.0598 31.5924 11.3028 31.6422 11.5262C31.6944 11.7602 31.7166 14.719 31.7166 21.4104C31.7166 30.6734 31.7128 30.9679 31.5875 31.2025C31.3358 31.6742 31.346 31.6725 28.6315 31.6725C26.359 31.6725 26.2131 31.6656 26.2441 31.5584C26.2622 31.4957 26.7873 30.2415 27.4108 28.7714C30.2418 22.0968 30.3462 21.8162 30.4088 20.7154C30.4802 19.4589 30.1522 18.5497 29.3485 17.7767C29.0018 17.4431 28.7507 17.2691 28.3836 17.1078C27.4355 16.6914 27.8445 16.7101 19.8054 16.716C15.7703 16.719 12.4548 16.7349 12.4377 16.7514C12.4205 16.7679 12.3439 17.4109 12.2674 18.1803C12.1103 19.7607 11.3234 27.1012 11.2988 27.2168C11.29 27.2582 10.688 26.4982 9.96113 25.5279C9.23425 24.5576 8.32597 23.3455 7.94272 22.8345L7.2459 21.9053L7.47306 20.5608L7.70023 19.2164L7.55088 19.0066C7.37519 18.7598 7.09953 18.5556 6.73405 18.4016C6.35374 18.2412 5.50169 18.2563 4.98522 18.4324C3.59212 18.9075 1.99816 20.1397 1.48845 21.1357C1.21291 21.6741 1.18364 22.2205 1.40597 22.6758C1.65841 23.1929 1.5971 23.1682 3.37528 23.4683L5.01326 23.7447L7.8769 27.6203C9.4519 29.7519 10.7649 31.5356 10.7947 31.5842C10.8401 31.6582 10.0502 31.6725 5.93429 31.6725H1.01966L0.781034 31.471ZM25.22 23.1459C25.0212 21.2918 24.8441 19.7234 24.8265 19.6606C24.7969 19.5551 24.8851 19.5465 26.004 19.5465C27.3716 19.5465 27.3937 19.553 27.6911 20.0411C27.9184 20.4142 27.9762 20.9991 27.8356 21.5023C27.7407 21.8419 25.7282 26.3725 25.6286 26.4708C25.6027 26.4963 25.4189 25.0001 25.22 23.1459Z" fill="#03BA6D"/>
</svg>
