<svg width="48" height="48" viewBox="0 0 48 48" fill="none" xmlns="http://www.w3.org/2000/svg">
<path d="M36.6784 27.5509C35.3016 27.0969 34.4939 26.6315 33.5698 25.7597C32.5294 24.7782 31.8939 23.8528 31.4649 22.6948C30.4988 20.0868 30.8455 18.1981 33.1596 13.4632C34.3948 10.9356 36.1671 7.8282 37.9163 5.12267L38.8733 3.64249L39.576 4.739C40.872 6.76124 43.0877 10.5536 44.0201 12.3453C46.2494 16.6295 46.9934 19.0619 46.6729 21.0188C46.4525 22.3649 46.1134 23.2537 45.4174 24.3096C43.9001 26.6114 41.5014 27.8654 38.6344 27.8555C37.9082 27.853 37.3139 27.7605 36.6784 27.5509ZM41.1514 24.8385C42.1831 24.353 43.3468 23.1992 43.8458 22.1669C44.285 21.2585 44.5554 19.4678 44.3585 18.7727C44.2335 18.3315 44.228 18.3289 43.3607 18.2903L42.4885 18.2515L42.5639 19.2766C42.658 20.5577 42.3393 21.5234 41.5525 22.3411C41.0392 22.8745 39.8961 23.5199 39.4601 23.5225C38.9118 23.5257 38.83 23.6581 38.83 24.5423V25.4012L39.5798 25.3132C39.9922 25.2648 40.6994 25.0512 41.1514 24.8385Z" fill="#44C7F3"/>
<path d="M13.1743 46.8678C8.47521 45.7769 4.76558 42.9373 2.67838 38.8336C1.43135 36.3818 0.944117 34.2263 1.04593 31.6117C1.09973 30.2299 1.18963 29.6325 1.51473 28.4962C3.09496 22.9728 7.47381 14.4232 14.1056 3.91295C15.7908 1.24218 16.0882 0.810607 16.178 0.90579C16.2111 0.940875 17.1152 2.36031 18.1871 4.0601C25.1087 15.0363 29.6317 24.0112 30.8791 29.2445C31.2304 30.7184 31.2251 33.3439 30.8672 35.1149C29.9217 39.7944 26.4587 44.0292 22.0714 45.8712C19.9263 46.7718 19.0161 46.954 16.3965 47.007C14.6214 47.0429 13.7702 47.0062 13.1743 46.8678ZM18.3525 43.2505V42.3299L17.3419 42.3289C14.2521 42.3259 11.3427 41.1343 9.15665 38.9764C7.52616 37.3669 6.60893 35.8417 5.97337 33.6831L5.69265 32.7296H4.78863H3.88461L3.96596 33.157C4.09889 33.8554 4.91334 36.1405 5.31614 36.9453C5.82277 37.9574 7.12178 39.6734 7.955 40.4312C10.6844 42.9133 13.6581 44.119 17.1463 44.1577L18.3525 44.1711V43.2505Z" fill="#44C7F3"/>
</svg>
