<svg width="163" height="163" viewBox="0 0 163 163" fill="none" xmlns="http://www.w3.org/2000/svg">
<path d="M81.75 162.357C126.426 162.357 162.643 126.14 162.643 81.4643C162.643 36.7884 126.426 0.571411 81.75 0.571411C37.0741 0.571411 0.857178 36.7884 0.857178 81.4643C0.857178 126.14 37.0741 162.357 81.75 162.357Z" fill="#F9F9F9"/>
<path d="M70.2285 156.859C52.8689 154.03 36.8659 145.559 24.0718 132.427C15.4948 123.623 15.4743 124.116 24.592 119.869C36.2651 114.432 47.03 111.322 61.0035 109.35C64.7776 108.818 65.2785 108.488 65.2785 106.539C65.2785 105.275 63.6249 102.301 61.407 99.5785C59.2776 96.9642 56.3641 92.1367 54.9326 88.8506C53.3765 85.2787 51.6699 82.7033 50.689 82.4468C48.5675 81.892 45.7351 75.4424 45.0943 69.7072C44.4602 64.033 46.106 59.0103 48.7216 58.6368C50.5827 58.3711 50.5944 58.2422 49.4146 50.9869C47.7302 40.6293 47.8472 37.5522 50.0136 35.2269C51.0229 34.1435 52.3965 33.2571 53.066 33.2571C53.7356 33.2571 54.5329 32.2628 54.8379 31.0476C55.5666 28.1442 60.0407 24.8885 66.1785 22.7953C69.9378 21.5132 73.7264 21.1072 81.9285 21.1072C91.7697 21.1072 93.1868 21.3219 97.8904 23.5264C104.935 26.8281 109.072 30.1494 111.585 34.523C114.66 39.874 114.993 42.7782 113.454 50.8213C112.698 54.7735 112.079 58.1084 112.079 58.2322C112.079 58.3559 113.101 58.4572 114.351 58.4572C117.421 58.4572 118.62 61.8101 118.212 69.2571C117.834 76.1714 115.143 82.1621 112.221 82.5948C111.122 82.7575 110.274 83.5391 110.267 84.3948C110.25 86.712 105.238 96.0825 101.721 100.375C99.9463 102.541 98.5785 105.214 98.5785 106.516C98.5785 109.039 98.4839 109 108.679 110.633C118.367 112.184 129.883 115.829 138.94 120.212C145.956 123.606 147.121 124.458 145.961 125.344C145.195 125.929 143.402 127.896 141.975 129.716C133.58 140.422 116.682 150.887 100.697 155.279C95.4618 156.717 75.66 157.744 70.2285 156.859Z" fill="#03BA6D"/>
</svg>
